<?xml version="1.0" encoding="UTF-8" standalone="no"?>
<!-- Created with Inkscape (http://www.inkscape.org/) -->
<svg
   xmlns:dc="http://purl.org/dc/elements/1.1/"
   xmlns:cc="http://creativecommons.org/ns#"
   xmlns:rdf="http://www.w3.org/1999/02/22-rdf-syntax-ns#"
   xmlns:svg="http://www.w3.org/2000/svg"
   xmlns="http://www.w3.org/2000/svg"
   xmlns:sodipodi="http://sodipodi.sourceforge.net/DTD/sodipodi-0.dtd"
   xmlns:inkscape="http://www.inkscape.org/namespaces/inkscape"
   width="744.09448819"
   height="1052.3622047"
   id="svg3225"
   sodipodi:version="0.32"
   inkscape:version="0.46"
   sodipodi:docname="bigtree.svg"
   inkscape:output_extension="org.inkscape.output.svg.inkscape">
  <sodipodi:namedview
     id="base"
     pagecolor="#ffffff"
     bordercolor="#666666"
     borderopacity="1.0"
     gridtolerance="10000"
     guidetolerance="10"
     objecttolerance="10"
     inkscape:pageopacity="0.0"
     inkscape:pageshadow="2"
     inkscape:zoom="1.979899"
     inkscape:cx="375"
     inkscape:cy="617.54896"
     inkscape:document-units="px"
     inkscape:current-layer="svg3225"
     showgrid="false"
     inkscape:window-width="640"
     inkscape:window-height="701"
     inkscape:window-x="88"
     inkscape:window-y="42" />
  <defs
     id="defs3227">
    <inkscape:perspective
       id="perspective3233"
       inkscape:persp3d-origin="372.04724 : 350.78739 : 1"
       inkscape:vp_z="744.09448 : 526.18109 : 1"
       inkscape:vp_y="0 : 1000 : 0"
       inkscape:vp_x="0 : 526.18109 : 1"
       sodipodi:type="inkscape:persp3d" />
  </defs>
  <metadata
     id="metadata3230">
    <rdf:RDF>
      <cc:Work
         rdf:about="">
        <dc:format>image/svg+xml</dc:format>
        <dc:type
           rdf:resource="http://purl.org/dc/dcmitype/StillImage" />
      </cc:Work>
    </rdf:RDF>
  </metadata>
  <g
     id="layer1"
     inkscape:groupmode="layer"
     inkscape:label="Layer 1" />
  <path
     style="fill:#aa0000;fill-opacity:1;stroke:#000000;stroke-width:1px;stroke-linecap:butt;stroke-linejoin:miter;stroke-opacity:1"
     d="M 345.375,313.09375 C 340.66642,315.11558 343.96004,322.03557 345.78125,325.4375 C 348.33733,329.32571 348.16087,335.59369 346.3125,338.65625 C 341.51406,334.56121 339.52993,328.86806 337.28125,323.25 C 335.4316,320.29274 331.77476,314.97889 331.65625,321.6875 C 328.79667,326.37609 331.4183,332.64819 335,336.125 C 335.69067,337.93063 336.69222,340.8366 338.9375,341.90625 C 344.15337,347.16345 348.42912,353.3002 350.21207,360.69148 C 350.31642,363.52429 355.47874,368.39471 350.46875,369.25 C 355.76078,369.8525 351.44734,375.97818 352.54119,379.37362 C 352.27695,382.7332 351.89732,386.09659 352.25,389.46875 C 348.01358,387.31305 343.89234,385.34941 339.96875,382.71875 C 336.6167,382.58813 334.48488,377.346 332.21875,374.6875 C 327.47412,369.36163 332.10347,361.06259 327.5,355.90625 C 322.25368,354.6833 321.11065,362.56285 321.375,365.96875 C 318.11966,365.54563 314.91758,366.45306 311.6875,366.71875 C 313.79497,372.45193 320.29256,373.29785 324.125,376.96875 C 324.81932,379.05626 326.60802,380.72667 327.34375,382.28125 C 320.48519,384.06107 312.46052,386.59136 306.3125,382.59375 C 302.05391,380.77166 297.49528,379.9386 294.21875,376.0625 C 287.09411,370.58688 282.55985,361.20606 284.09375,352.375 C 283.41573,350.08915 280.38174,347.07431 278.53125,350.03125 C 275.78569,345.67762 276.37031,354.5276 275.78125,356.96875 C 275.43482,361.35791 276.63768,365.92124 278.8125,369.5 C 275.20751,368.77099 269.51018,373.02138 274.625,375.375 C 278.88279,378.01168 285.53329,376.68791 288.09375,381.65625 C 284.79306,381.98992 279.52952,386.16382 284.15625,388.78125 C 290.14152,392.00032 296.74079,385.85617 302.46875,390.125 C 304.94785,390.86683 308.56727,391.27712 304.90625,393.8125 C 300.93545,398.06568 298.70619,403.73894 299.09375,409.59375 C 307.17965,406.07372 311.58952,397.59909 317.75,392.3125 C 323.91247,392.99996 330.83319,387.70109 336.71875,390.59375 C 340.07098,393.87473 345.60394,393.93618 349.3125,397.0625 C 359.90966,403.44531 362.16505,416.96031 367.65493,427.03935 C 369.41149,442.92965 367.79983,460.35275 369.57344,476.3539 C 369.9391,480.32598 377.68217,480.12101 378.21875,475.84375 C 380.29787,465.23682 378.99453,454.14488 380.01062,443.34509 C 380.24276,434.1141 380.27066,424.79356 383.875,416.21875 C 385.91092,410.09822 386.3755,402.17414 393.28125,399.40625 C 394.94009,398.54541 400.99811,392.28622 399.22849,394.65313 C 402.28605,389.30836 401.72986,389.81813 401.5836,386.09375 C 402.75727,381.87662 403.14826,377.40664 401.84375,373.28125 C 395.1335,376.58514 395.29874,384.44274 392.15625,390 C 390.618,391.651 387.25907,394.65774 388.125,390.34375 C 387.20487,384.23641 394.12665,379.84402 392.9375,373.875 C 390.52276,369.98208 385.76839,375.31944 385.69765,378.70273 C 380.55245,382.86165 380.10091,389.06921 380.1875,395 C 381.80162,401.45827 376.82728,408.21975 374.21875,412.625 C 371.11202,406.03238 367.28855,399.6992 362.40625,394.3125 C 363.21688,385.18637 359.4637,375.51565 362.15625,366.78125 C 364.00045,362.62005 365.73211,358.75998 369.375,355.90625 C 366.85653,356.12159 371.72622,352.47005 372.6875,351.5 C 375.42194,350.17446 379.76342,344.08866 381.74377,347.63582 C 381.27756,347.21088 384.34726,343.50231 388.03125,344.4375 C 394.87346,342.62507 400.7413,350.09046 407.375,347.1875 C 410.62421,342.6784 403.88615,339.30331 400.22078,338.36535 C 400.37496,335.78523 402.63276,331.32963 403.125,328 C 397.24401,328.49813 393.78443,333.75997 389,336.125 C 385.22896,336.69515 383.72685,336.47663 380.5,337.53125 C 375.86346,337.70663 375.99528,338.73398 372.84375,341.3125 C 370.03475,345.30466 370.02407,340.23036 369.59375,337.96875 C 368.4669,333.63518 365.9134,328.36377 361.53125,326.78125 C 357.31038,327.1707 356.97722,332.17942 359.40625,334.9375 C 363.30008,341.18207 363.57567,349.91353 359.03125,355.8125 C 358.38907,358.54557 358.15082,358.32858 357.125,356 C 354.86305,350.82438 352.07271,344.95105 355.03125,339.46875 C 357.80754,330.34911 354.13464,319.89394 347.375,313.53125 C 346.7605,313.19888 346.08224,312.94416 345.375,313.09375 z M 340.84375,384.125 C 343.74173,387.04702 338.25742,385.18867 340.84375,384.125 z"
     id="path3761"
     sodipodi:nodetypes="cccccccccccccccccccccccccccccccccccccccccccccccccccccccccccccccccccccc"
     inkscape:export-filename="/Users/patrick/bigtree.png"
     inkscape:export-xdpi="96.919983"
     inkscape:export-ydpi="96.919983" />
</svg>
