<?xml version="1.0" encoding="UTF-8" standalone="no"?>
<!-- Created with Inkscape (http://www.inkscape.org/) -->
<svg
   xmlns:dc="http://purl.org/dc/elements/1.1/"
   xmlns:cc="http://creativecommons.org/ns#"
   xmlns:rdf="http://www.w3.org/1999/02/22-rdf-syntax-ns#"
   xmlns:svg="http://www.w3.org/2000/svg"
   xmlns="http://www.w3.org/2000/svg"
   xmlns:sodipodi="http://sodipodi.sourceforge.net/DTD/sodipodi-0.dtd"
   xmlns:inkscape="http://www.inkscape.org/namespaces/inkscape"
   width="744.09448819"
   height="1052.3622047"
   id="svg2539"
   sodipodi:version="0.32"
   inkscape:version="0.46"
   sodipodi:docname="grill.svg"
   inkscape:output_extension="org.inkscape.output.svg.inkscape">
  <defs
     id="defs2541">
    <inkscape:perspective
       sodipodi:type="inkscape:persp3d"
       inkscape:vp_x="0 : 526.18109 : 1"
       inkscape:vp_y="0 : 1000 : 0"
       inkscape:vp_z="744.09448 : 526.18109 : 1"
       inkscape:persp3d-origin="372.04724 : 350.78739 : 1"
       id="perspective2547" />
  </defs>
  <sodipodi:namedview
     id="base"
     pagecolor="#ffffff"
     bordercolor="#666666"
     borderopacity="1.0"
     gridtolerance="10000"
     guidetolerance="10"
     objecttolerance="10"
     inkscape:pageopacity="0.0"
     inkscape:pageshadow="2"
     inkscape:zoom="0.35"
     inkscape:cx="1301.3541"
     inkscape:cy="822.32704"
     inkscape:document-units="px"
     inkscape:current-layer="layer1"
     showgrid="false"
     inkscape:window-width="665"
     inkscape:window-height="701"
     inkscape:window-x="108"
     inkscape:window-y="22" />
  <metadata
     id="metadata2544">
    <rdf:RDF>
      <cc:Work
         rdf:about="">
        <dc:format>image/svg+xml</dc:format>
        <dc:type
           rdf:resource="http://purl.org/dc/dcmitype/StillImage" />
      </cc:Work>
    </rdf:RDF>
  </metadata>
  <g
     inkscape:label="Layer 1"
     inkscape:groupmode="layer"
     id="layer1">
    <path
       style="fill:none;fill-rule:evenodd;stroke:#000000;stroke-width:10;stroke-linecap:butt;stroke-linejoin:miter;stroke-opacity:1;stroke-miterlimit:4;stroke-dasharray:none"
       d="M 317.14286,578.07647 L 305.71429,740.93361"
       id="path2558"
       inkscape:export-filename="/Users/patrick/grill.png"
       inkscape:export-xdpi="12.900846"
       inkscape:export-ydpi="12.900846" />
    <path
       style="fill:#ff0000;fill-opacity:1;stroke:#000000;stroke-width:3.0999999;stroke-linejoin:round;stroke-miterlimit:4;stroke-dashoffset:0;stroke-opacity:1"
       d="M 442.85715,476.64789 C 442.85715,540.52217 385.89715,592.36217 315.71429,592.36217 C 245.53144,592.36217 188.57143,540.52217 188.57143,476.64789 C 188.57143,412.7736 245.53144,486.64789 315.71429,486.64789 C 385.89715,486.64789 442.85715,412.7736 442.85715,476.64789 z"
       id="path2549"
       sodipodi:nodetypes="csssc"
       inkscape:export-filename="/Users/patrick/grill.png"
       inkscape:export-xdpi="12.900846"
       inkscape:export-ydpi="12.900846" />
    <path
       sodipodi:type="arc"
       style="opacity:1;fill:#1a1a1a;fill-opacity:1;stroke:#000000;stroke-width:3.0999999;stroke-linejoin:round;stroke-miterlimit:4;stroke-dasharray:none;stroke-dashoffset:0;stroke-opacity:1"
       id="path2551"
       sodipodi:cx="325.71429"
       sodipodi:cy="796.64789"
       sodipodi:rx="91.428574"
       sodipodi:ry="41.42857"
       d="M 417.14287,796.64789 A 91.428574,41.42857 0 1 1 234.28572,796.64789 A 91.428574,41.42857 0 1 1 417.14287,796.64789 z"
       transform="matrix(1.3721568,0,0,0.9937253,-129.78821,-326.42987)"
       inkscape:export-filename="/Users/patrick/grill.png"
       inkscape:export-xdpi="12.900846"
       inkscape:export-ydpi="12.900846" />
    <path
       style="fill:none;fill-rule:evenodd;stroke:#000000;stroke-width:10;stroke-linecap:butt;stroke-linejoin:miter;stroke-opacity:1;stroke-miterlimit:4;stroke-dasharray:none"
       d="M 374.28571,580.93361 L 440,746.6479"
       id="path2556"
       inkscape:export-filename="/Users/patrick/grill.png"
       inkscape:export-xdpi="12.900846"
       inkscape:export-ydpi="12.900846" />
    <path
       style="fill:none;fill-rule:evenodd;stroke:#000000;stroke-width:10;stroke-linecap:butt;stroke-linejoin:miter;stroke-opacity:1;stroke-miterlimit:4;stroke-dasharray:none"
       d="M 274.28571,575.21933 L 217.14286,758.07647"
       id="path2560"
       inkscape:export-filename="/Users/patrick/grill.png"
       inkscape:export-xdpi="12.900846"
       inkscape:export-ydpi="12.900846" />
    <path
       sodipodi:type="arc"
       style="opacity:1;fill:#1a1a1a;fill-opacity:1;stroke:#000000;stroke-width:3.0999999;stroke-linejoin:round;stroke-miterlimit:4;stroke-dasharray:none;stroke-dashoffset:0;stroke-opacity:1"
       id="path2562"
       sodipodi:cx="434.28571"
       sodipodi:cy="743.79077"
       sodipodi:rx="22.857143"
       sodipodi:ry="25.714285"
       d="M 457.14285,743.79077 A 22.857143,25.714285 0 1 1 411.42856,743.79077 A 22.857143,25.714285 0 1 1 457.14285,743.79077 z"
       inkscape:export-filename="/Users/patrick/grill.png"
       inkscape:export-xdpi="12.900846"
       inkscape:export-ydpi="12.900846" />
    <path
       sodipodi:type="arc"
       style="opacity:1;fill:#1a1a1a;fill-opacity:1;stroke:#000000;stroke-width:3.0999999;stroke-linejoin:round;stroke-miterlimit:4;stroke-dasharray:none;stroke-dashoffset:0;stroke-opacity:1"
       id="path2566"
       sodipodi:cx="434.28571"
       sodipodi:cy="743.79077"
       sodipodi:rx="22.857143"
       sodipodi:ry="25.714285"
       d="M 457.14285,743.79077 A 22.857143,25.714285 0 1 1 411.42856,743.79077 A 22.857143,25.714285 0 1 1 457.14285,743.79077 z"
       transform="translate(-131.42856,-1.7128571e-5)"
       inkscape:export-filename="/Users/patrick/grill.png"
       inkscape:export-xdpi="12.900846"
       inkscape:export-ydpi="12.900846" />
    <path
       style="fill:none;fill-rule:evenodd;stroke:#000000;stroke-width:10;stroke-linecap:butt;stroke-linejoin:miter;stroke-opacity:1;stroke-miterlimit:4;stroke-dasharray:none"
       d="M 1082.8571,503.79075 L 1082.8571,643.79075"
       id="path3392"
       inkscape:export-filename="/Users/patrick/biggrill.png"
       inkscape:export-xdpi="72.772278"
       inkscape:export-ydpi="72.772278" />
    <path
       style="fill:none;fill-rule:evenodd;stroke:#000000;stroke-width:10;stroke-linecap:butt;stroke-linejoin:miter;stroke-opacity:1;stroke-miterlimit:4;stroke-dasharray:none"
       d="M 1177.1429,480.93361 L 1228.5714,686.6479"
       id="path3390"
       inkscape:export-filename="/Users/patrick/biggrill.png"
       inkscape:export-xdpi="72.772278"
       inkscape:export-ydpi="72.772278" />
    <path
       sodipodi:type="arc"
       style="opacity:1;fill:#ff0000;fill-opacity:1;stroke:#000000;stroke-width:1;stroke-linejoin:round;stroke-miterlimit:4;stroke-dasharray:none;stroke-dashoffset:0;stroke-opacity:1"
       id="path3376"
       sodipodi:cx="630"
       sodipodi:cy="469.50504"
       sodipodi:rx="112.85714"
       sodipodi:ry="108.57143"
       d="M 742.85714,469.50504 A 112.85714,108.57143 0 1 1 517.14286,469.50504 A 112.85714,108.57143 0 1 1 742.85714,469.50504 z"
       transform="matrix(1.8833671,0,0,1.3787632,-130.80699,-273.54548)"
       inkscape:export-filename="/Users/patrick/biggrill.png"
       inkscape:export-xdpi="72.772278"
       inkscape:export-ydpi="72.772278" />
    <path
       sodipodi:type="arc"
       style="fill:#333333;fill-opacity:1;stroke:#000000;stroke-width:10;stroke-linejoin:round;stroke-miterlimit:4;stroke-dasharray:none;stroke-dashoffset:0;stroke-opacity:1"
       id="path3358"
       sodipodi:cx="471.42856"
       sodipodi:cy="186.6479"
       sodipodi:rx="211.42857"
       sodipodi:ry="125.71429"
       d="M 682.85713,186.6479 A 211.42857,125.71429 0 1 1 259.99998,186.6479 A 211.42857,125.71429 0 1 1 682.85713,186.6479 z"
       transform="translate(582.85714,157.14285)"
       inkscape:export-filename="/Users/patrick/biggrill.png"
       inkscape:export-xdpi="72.772278"
       inkscape:export-ydpi="72.772278" />
    <path
       style="fill:#ff0000;fill-opacity:1;stroke:#000000;stroke-width:1;stroke-linejoin:round;stroke-miterlimit:4;stroke-dashoffset:0;stroke-opacity:1"
       d="M 1143.4926,299.79854 C 1119.2489,314.36898 1116.5843,333.8929 1097.0256,321.01174 C 1081.6875,310.91022 1058.6399,320.42989 1058.6399,299.79854 C 1058.6399,279.16718 1077.6469,272.52442 1101.0662,272.52442 C 1124.4856,272.52442 1143.4926,279.16718 1143.4926,299.79854 z"
       id="path3409"
       sodipodi:nodetypes="csssc"
       inkscape:export-filename="/Users/patrick/biggrill.png"
       inkscape:export-xdpi="72.772278"
       inkscape:export-ydpi="72.772278" />
    <path
       style="fill:#ff0000;fill-opacity:1;stroke:#000000;stroke-width:1;stroke-linejoin:round;stroke-miterlimit:4;stroke-dashoffset:0;stroke-opacity:1"
       d="M 998.77454,293.88632 C 998.77454,315.17775 998.10022,342.45771 967.34593,333.88631 C 937.72074,325.62957 917.98202,315.09686 928.77451,296.74346 C 938.77451,279.73775 930.87736,268.17203 961.63164,268.17203 C 992.38593,268.17203 998.77454,272.59489 998.77454,293.88632 z"
       id="path3398"
       sodipodi:nodetypes="csssc"
       inkscape:export-filename="/Users/patrick/biggrill.png"
       inkscape:export-xdpi="72.772278"
       inkscape:export-ydpi="72.772278" />
    <rect
       style="fill:#cccccc;fill-opacity:1;stroke:#000000;stroke-width:1;stroke-linejoin:round;stroke-miterlimit:4;stroke-dasharray:none;stroke-dashoffset:0;stroke-opacity:1"
       id="rect3362"
       width="334.28571"
       height="11.428572"
       x="885.71429"
       y="263.79077"
       ry="5.7142859"
       inkscape:export-filename="/Users/patrick/biggrill.png"
       inkscape:export-xdpi="72.772278"
       inkscape:export-ydpi="72.772278" />
    <path
       style="fill:#ff0000;fill-opacity:1;stroke:#000000;stroke-width:1;stroke-linejoin:round;stroke-miterlimit:4;stroke-dashoffset:0;stroke-opacity:1"
       d="M 1004.0917,398.79349 C 1004.0917,414.96402 988.70496,409.90517 969.74646,409.90517 C 950.78786,409.90517 947.52306,414.96402 935.40125,398.79349 C 925.70204,385.85475 950.78786,379.6006 969.74646,379.6006 C 988.70496,379.6006 996.01046,378.58236 1004.0917,398.79349 z"
       id="path3412"
       sodipodi:nodetypes="csssc"
       inkscape:export-filename="/Users/patrick/biggrill.png"
       inkscape:export-xdpi="72.772278"
       inkscape:export-ydpi="72.772278" />
    <path
       style="fill:#ff0000;fill-opacity:1;stroke:#000000;stroke-width:1;stroke-linejoin:round;stroke-miterlimit:4;stroke-dashoffset:0;stroke-opacity:1"
       d="M 1084.5852,405.95227 C 1068.2182,421.10474 1072.7026,422.85583 1047.1399,413.08723 C 1024.2217,404.32924 1032.533,382.55923 1048.9,367.40676 C 1065.267,352.25429 1077.6927,356.87337 1099.028,365.04951 C 1121.9379,373.82909 1100.9522,390.7998 1084.5852,405.95227 z"
       id="path3415"
       sodipodi:nodetypes="csssc"
       inkscape:export-filename="/Users/patrick/biggrill.png"
       inkscape:export-xdpi="72.772278"
       inkscape:export-ydpi="72.772278" />
    <rect
       style="fill:#cccccc;fill-opacity:1;stroke:#000000;stroke-width:1;stroke-linejoin:round;stroke-miterlimit:4;stroke-dasharray:none;stroke-dashoffset:0;stroke-opacity:1"
       id="rect3364"
       width="334.28571"
       height="11.428572"
       x="887.14282"
       y="409.50507"
       ry="5.7142859"
       inkscape:export-filename="/Users/patrick/biggrill.png"
       inkscape:export-xdpi="72.772278"
       inkscape:export-ydpi="72.772278" />
    <rect
       style="fill:#cccccc;fill-opacity:1;stroke:#000000;stroke-width:1.08202505;stroke-linejoin:round;stroke-miterlimit:4;stroke-dasharray:none;stroke-dashoffset:0;stroke-opacity:1"
       id="rect3366"
       width="394.20367"
       height="11.346547"
       x="855.75531"
       y="295.26035"
       ry="5.6732736"
       inkscape:export-filename="/Users/patrick/biggrill.png"
       inkscape:export-xdpi="72.772278"
       inkscape:export-ydpi="72.772278" />
    <rect
       style="fill:#cccccc;fill-opacity:1;stroke:#000000;stroke-width:0.81288183;stroke-linejoin:round;stroke-miterlimit:4;stroke-dasharray:none;stroke-dashoffset:0;stroke-opacity:1"
       id="rect3368"
       width="217.32999"
       height="11.61569"
       x="944.19214"
       y="232.26862"
       ry="5.8078451"
       inkscape:export-filename="/Users/patrick/biggrill.png"
       inkscape:export-xdpi="72.772278"
       inkscape:export-ydpi="72.772278" />
    <rect
       style="fill:#cccccc;fill-opacity:1;stroke:#000000;stroke-width:1.08202505;stroke-linejoin:round;stroke-miterlimit:4;stroke-dasharray:none;stroke-dashoffset:0;stroke-opacity:1"
       id="rect3370"
       width="394.20367"
       height="11.346547"
       x="854.32672"
       y="375.26035"
       ry="5.6732736"
       inkscape:export-filename="/Users/patrick/biggrill.png"
       inkscape:export-xdpi="72.772278"
       inkscape:export-ydpi="72.772278" />
    <rect
       style="fill:#cccccc;fill-opacity:1;stroke:#000000;stroke-width:0.81288183;stroke-linejoin:round;stroke-miterlimit:4;stroke-dasharray:none;stroke-dashoffset:0;stroke-opacity:1"
       id="rect3372"
       width="217.32999"
       height="11.61569"
       x="945.62073"
       y="440.84009"
       ry="5.8078451"
       inkscape:export-filename="/Users/patrick/biggrill.png"
       inkscape:export-xdpi="72.772278"
       inkscape:export-ydpi="72.772278" />
    <rect
       style="fill:#cccccc;fill-opacity:1;stroke:#000000;stroke-width:1.11146843;stroke-linejoin:round;stroke-miterlimit:4;stroke-dasharray:none;stroke-dashoffset:0;stroke-opacity:1"
       id="rect3374"
       width="417.03137"
       height="11.317103"
       x="845.77002"
       y="332.41791"
       ry="5.6585517"
       inkscape:export-filename="/Users/patrick/biggrill.png"
       inkscape:export-xdpi="72.772278"
       inkscape:export-ydpi="72.772278" />
    <path
       style="fill:none;fill-rule:evenodd;stroke:#000000;stroke-width:10;stroke-linecap:butt;stroke-linejoin:miter;stroke-miterlimit:4;stroke-dasharray:none;stroke-opacity:1"
       d="M 997.14287,509.50504 L 957.14286,709.50504"
       id="path3388"
       inkscape:export-filename="/Users/patrick/biggrill.png"
       inkscape:export-xdpi="72.772278"
       inkscape:export-ydpi="72.772278" />
    <path
       sodipodi:type="arc"
       style="opacity:1;fill:#1a1a1a;fill-opacity:1;stroke:#000000;stroke-width:3.0999999;stroke-linejoin:round;stroke-miterlimit:4;stroke-dasharray:none;stroke-dashoffset:0;stroke-opacity:1"
       id="path3394"
       sodipodi:cx="434.28571"
       sodipodi:cy="743.79077"
       sodipodi:rx="22.857143"
       sodipodi:ry="25.714285"
       d="M 457.14285,743.79077 A 22.857143,25.714285 0 1 1 411.42856,743.79077 A 22.857143,25.714285 0 1 1 457.14285,743.79077 z"
       inkscape:export-filename="/Users/patrick/biggrill.png"
       inkscape:export-xdpi="72.772278"
       inkscape:export-ydpi="72.772278"
       transform="matrix(-0.8746589,-0.484739,-0.484739,0.8746589,1820.3963,218.02849)" />
    <path
       sodipodi:type="arc"
       style="opacity:1;fill:#1a1a1a;fill-opacity:1;stroke:#000000;stroke-width:3.0999999;stroke-linejoin:round;stroke-miterlimit:4;stroke-dasharray:none;stroke-dashoffset:0;stroke-opacity:1"
       id="path3396"
       sodipodi:cx="434.28571"
       sodipodi:cy="743.79077"
       sodipodi:rx="22.857143"
       sodipodi:ry="25.714285"
       d="M 457.14285,743.79077 A 22.857143,25.714285 0 1 1 411.42856,743.79077 A 22.857143,25.714285 0 1 1 457.14285,743.79077 z"
       inkscape:export-filename="/Users/patrick/biggrill.png"
       inkscape:export-xdpi="72.772278"
       inkscape:export-ydpi="72.772278"
       transform="translate(794.28572,-57.142875)" />
    <path
       style="fill:#ff0000;fill-opacity:1;stroke:#000000;stroke-width:8.76060581;stroke-linejoin:round;stroke-miterlimit:4;stroke-dashoffset:0;stroke-opacity:1"
       d="M 1349.1295,-151.33302 C 1349.1295,-100.90061 1311.0461,-95.109599 1242.1535,-95.109599 C 1173.261,-95.109599 1138.6866,-72.2949 1120.9142,-119.70735 C 1100.8801,-173.15325 1180.329,-242.30837 1256.417,-242.69606 C 1325.2724,-243.04689 1349.1295,-201.76542 1349.1295,-151.33302 z"
       id="path3425"
       sodipodi:nodetypes="csssc"
       inkscape:export-filename="/Users/patrick/beef.png"
       inkscape:export-xdpi="72.772278"
       inkscape:export-ydpi="72.772278" />
    <path
       style="fill:#ff0000;fill-opacity:1;stroke:#000000;stroke-width:8.76060581;stroke-linejoin:round;stroke-miterlimit:4;stroke-dashoffset:0;stroke-opacity:1"
       d="M 1346.1429,-194.629 C 1346.1429,-144.1966 1308.0595,-138.40559 1239.1669,-138.40559 C 1170.2744,-138.40559 1091.3779,-119.88821 1117.9276,-163.00333 C 1142.9173,-203.5853 1207.0665,-277.11176 1253.4304,-285.99204 C 1321.0574,-298.94496 1346.1429,-245.0614 1346.1429,-194.629 z"
       id="path3418"
       sodipodi:nodetypes="csssc"
       inkscape:export-filename="/Users/patrick/beef.png"
       inkscape:export-xdpi="72.772278"
       inkscape:export-ydpi="72.772278" />
    <path
       sodipodi:type="arc"
       style="opacity:1;fill:#f2f2f2;fill-opacity:1;stroke:#000000;stroke-width:10;stroke-linejoin:round;stroke-miterlimit:4;stroke-dasharray:none;stroke-dashoffset:0;stroke-opacity:1"
       id="path3421"
       sodipodi:cx="901.05609"
       sodipodi:cy="-382.05444"
       sodipodi:rx="28.284277"
       sodipodi:ry="32.324883"
       d="M 929.34037,-382.05444 A 28.284277,32.324883 0 1 1 872.77181,-382.05444 A 28.284277,32.324883 0 1 1 929.34037,-382.05444 z"
       transform="matrix(1.0258898,0,0,0.7101536,344.36737,32.704557)"
       inkscape:export-filename="/Users/patrick/beef.png"
       inkscape:export-xdpi="72.772278"
       inkscape:export-ydpi="72.772278" />
    <rect
       style="opacity:1;fill:#f2f2f2;fill-opacity:1;stroke:#000000;stroke-width:10;stroke-linejoin:round;stroke-miterlimit:4;stroke-dasharray:none;stroke-dashoffset:0;stroke-opacity:1"
       id="rect3427"
       width="161.6244"
       height="250.51784"
       x="408.10162"
       y="-301.24222"
       ry="42.038761"
       inkscape:export-filename="/Users/patrick/spritzer.png"
       inkscape:export-xdpi="32.653599"
       inkscape:export-ydpi="32.653599" />
    <rect
       style="opacity:1;fill:#f2f2f2;fill-opacity:1;stroke:#000000;stroke-width:8.94855309;stroke-linejoin:round;stroke-miterlimit:4;stroke-dasharray:none;stroke-dashoffset:0;stroke-opacity:1"
       id="rect3429"
       width="30.221947"
       height="93.439575"
       x="230.2417"
       y="-600.14862"
       ry="17.51992"
       transform="matrix(0.8152957,0.5790449,-0.3796098,0.9251467,0,0)"
       inkscape:export-filename="/Users/patrick/spritzer.png"
       inkscape:export-xdpi="32.653599"
       inkscape:export-ydpi="32.653599" />
    <path
       style="fill:#f2f2f2;fill-opacity:1;stroke:#000000;stroke-width:8.82853889;stroke-linejoin:round;stroke-miterlimit:4;stroke-dashoffset:0;stroke-opacity:1"
       d="M 472.16567,-386.68079 L 509.70263,-386.68079 L 525.86507,-300.65652 L 456.00323,-300.65652 L 472.16567,-386.68079 z"
       id="rect3431"
       sodipodi:nodetypes="ccccc"
       inkscape:export-filename="/Users/patrick/spritzer.png"
       inkscape:export-xdpi="32.653599"
       inkscape:export-ydpi="32.653599" />
    <path
       transform="matrix(0.9466592,0.3222366,-0.3124081,0.949948,0,0)"
       style="fill:#f2f2f2;fill-opacity:1;stroke:#000000;stroke-width:11.12390995;stroke-linejoin:round;stroke-miterlimit:4;stroke-dashoffset:0;stroke-opacity:1"
       d="M 228.32623,-567.81915 L 348.29607,-567.81915 C 359.57878,-567.81915 368.66197,-558.73596 368.66197,-547.45325 L 368.66197,-524.82448 C 368.66197,-513.54177 359.57878,-504.45858 348.29607,-504.45858 L 228.32623,-504.45858 C 217.04352,-504.45858 207.96033,-513.54177 207.96033,-524.82448 L 207.96033,-547.45325 C 207.96033,-558.73596 217.04352,-567.81915 228.32623,-567.81915 z"
       id="rect3434"
       inkscape:export-filename="/Users/patrick/spritzer.png"
       inkscape:export-xdpi="32.653599"
       inkscape:export-ydpi="32.653599" />
    <path
       style="fill:#784421;fill-opacity:1;stroke:#000000;stroke-width:8.76060580999999949;stroke-linejoin:round;stroke-miterlimit:4;stroke-dashoffset:0;stroke-opacity:1"
       d="M 1500.1254,83.700525 C 1500.1254,134.13294 1462.042,139.92395 1393.1494,139.92395 C 1324.2569,139.92395 1289.6825,162.73865 1271.9101,115.3262 C 1251.876,61.880296 1331.3249,-7.2748245 1407.4129,-7.6625145 C 1476.2683,-8.0133445 1500.1254,33.268126 1500.1254,83.700525 z"
       id="path3437"
       sodipodi:nodetypes="csssc"
       inkscape:export-filename="/Users/patrick/beef.png"
       inkscape:export-xdpi="72.772278"
       inkscape:export-ydpi="72.772278" />
    <path
       style="fill:#a05a2c;fill-opacity:1;stroke:#000000;stroke-width:8.76060580999999949;stroke-linejoin:round;stroke-miterlimit:4;stroke-dashoffset:0;stroke-opacity:1"
       d="M 1497.1388,40.404546 C 1497.1388,90.836946 1459.0554,96.627956 1390.1628,96.627956 C 1321.2703,96.627956 1242.3738,115.14534 1268.9235,72.030215 C 1293.9132,31.448246 1358.0624,-42.078216 1404.4263,-50.958496 C 1472.0533,-63.911416 1497.1388,-10.027854 1497.1388,40.404546 z"
       id="path3439"
       sodipodi:nodetypes="csssc"
       inkscape:export-filename="/Users/patrick/beef.png"
       inkscape:export-xdpi="72.772278"
       inkscape:export-ydpi="72.772278" />
    <path
       sodipodi:type="arc"
       style="opacity:1;fill:#f2f2f2;fill-opacity:1;stroke:#000000;stroke-width:10;stroke-linejoin:round;stroke-miterlimit:4;stroke-dasharray:none;stroke-dashoffset:0;stroke-opacity:1"
       id="path3441"
       sodipodi:cx="901.05609"
       sodipodi:cy="-382.05444"
       sodipodi:rx="28.284277"
       sodipodi:ry="32.324883"
       d="M 929.34037,-382.05444 A 28.284277,32.324883 0 1 1 872.77181,-382.05444 A 28.284277,32.324883 0 1 1 929.34037,-382.05444 z"
       transform="matrix(1.0258898,0,0,0.7101536,495.36335,267.7381)"
       inkscape:export-filename="/Users/patrick/beef.png"
       inkscape:export-xdpi="72.772278"
       inkscape:export-ydpi="72.772278" />
    <path
       style="fill:#ff0000;fill-opacity:1;stroke:#000000;stroke-width:5;stroke-linejoin:round;stroke-miterlimit:4;stroke-dashoffset:0;stroke-opacity:1;stroke-dasharray:none"
       d="M 1733.4218,-293.161 L 1627.1746,-301.27477 L 1555.7004,-295.84643 C 1497.9939,-359.49427 1542.8748,-380.54684 1553.2961,-446.63687 L 1597.1778,-552.23415 L 1643.9411,-462.47218 C 1684.656,-507.6481 1664.7169,-570.15372 1630.7049,-636.68018 L 1693.0703,-575.49708 L 1786.4716,-444.41321 C 1805.5309,-404.77077 1806.8525,-332.80344 1733.4218,-293.161 z"
       id="path4106"
       sodipodi:nodetypes="cccccccccc"
       inkscape:export-filename="/Users/patrick/fire.png"
       inkscape:export-xdpi="22.851707"
       inkscape:export-ydpi="22.851707" />
    <path
       style="fill:#ffff00;fill-opacity:1;stroke:#000000;stroke-width:5;stroke-linejoin:round;stroke-miterlimit:4;stroke-dashoffset:0;stroke-opacity:1;stroke-dasharray:none"
       d="M 1714.738,-321.95866 L 1631.1236,-327.08803 L 1574.8749,-323.65634 C 1529.461,-363.89327 1564.7814,-377.2023 1572.9828,-418.98314 L 1643.8823,-550.38946 L 1660.4809,-420.9127 C 1692.5227,-449.47204 1725.3184,-444.54018 1698.5517,-486.59692 L 1682.9822,-500.44608 L 1756.4871,-417.57739 C 1771.4864,-392.5162 1772.5265,-347.01985 1714.738,-321.95866 z"
       id="path4109"
       sodipodi:nodetypes="cccccccccc"
       inkscape:export-filename="/Users/patrick/fire.png"
       inkscape:export-xdpi="22.851707"
       inkscape:export-ydpi="22.851707" />
    <path
       style="fill:#ff0000;fill-opacity:1;stroke:#000000;stroke-width:5;stroke-linejoin:round;stroke-miterlimit:4;stroke-dasharray:none;stroke-dashoffset:0;stroke-opacity:1"
       d="M 1699.6099,622.07086 L 1593.3627,613.95709 L 1521.8885,619.38543 C 1464.182,555.73759 1509.0629,534.68502 1519.4842,468.59499 L 1559.3253,409.46473 L 1610.1292,452.75968 C 1650.8441,407.58376 1744.0421,334.97661 1710.0301,268.45015 L 1750.1721,345.7957 L 1752.6597,470.81865 C 1771.719,510.46109 1773.0406,582.42842 1699.6099,622.07086 z"
       id="path4113"
       sodipodi:nodetypes="cccccccccc"
       inkscape:export-filename="/Users/patrick/fire2.png"
       inkscape:export-xdpi="22.851707"
       inkscape:export-ydpi="22.851707" />
    <path
       style="fill:#ffff00;fill-opacity:1;stroke:#000000;stroke-width:5;stroke-linejoin:round;stroke-miterlimit:4;stroke-dasharray:none;stroke-dashoffset:0;stroke-opacity:1"
       d="M 1680.9261,593.2732 L 1597.3117,588.14383 L 1541.063,591.57552 C 1495.6491,551.33859 1518.8477,521.86712 1533.11,488.1675 L 1608.0501,374.94393 L 1626.669,494.31916 C 1658.7108,465.75982 1630.8973,492.91504 1660.6992,454.89891 L 1711.7998,376.39998 L 1722.6752,497.65447 C 1737.6745,522.71566 1738.7146,568.21201 1680.9261,593.2732 z"
       id="path4115"
       sodipodi:nodetypes="cccccccccc"
       inkscape:export-filename="/Users/patrick/fire2.png"
       inkscape:export-xdpi="22.851707"
       inkscape:export-ydpi="22.851707" />
    <path
       style="fill:#ff0000;fill-opacity:1;stroke:#000000;stroke-width:5;stroke-linejoin:round;stroke-miterlimit:4;stroke-dasharray:none;stroke-dashoffset:0;stroke-opacity:1"
       d="M 1875.3662,138.49495 L 1769.119,130.38118 L 1697.6448,135.80952 C 1639.9383,72.161677 1684.8192,51.109107 1695.2405,-14.980923 L 1735.0816,-74.111181 L 1785.8855,-30.816233 C 1826.6004,-75.992151 1902.6555,-74.313586 1868.6435,-140.84005 L 1920.2141,-69.208781 L 1928.416,-12.757263 C 1947.4753,26.885177 1948.7969,98.852507 1875.3662,138.49495 z"
       id="path4117"
       sodipodi:nodetypes="cccccccccc"
       inkscape:export-filename="/Users/patrick/fire0.png"
       inkscape:export-xdpi="22.851707"
       inkscape:export-ydpi="22.851707" />
    <path
       style="fill:#ffff00;fill-opacity:1;stroke:#000000;stroke-width:5;stroke-linejoin:round;stroke-miterlimit:4;stroke-dasharray:none;stroke-dashoffset:0;stroke-opacity:1"
       d="M 1856.6824,109.69729 L 1773.068,104.56792 L 1716.8193,107.99961 C 1671.4054,67.762677 1691.7469,32.576921 1706.0092,-1.1226991 L 1723.8064,-134.34627 L 1770.9967,-37.828182 C 1745.8957,76.469621 1769.5107,37.910555 1836.4555,-28.677003 L 1884.699,-181.46164 L 1915.5744,-31.635729 C 1930.5737,-6.5745387 1914.4709,84.636097 1856.6824,109.69729 z"
       id="path4119"
       sodipodi:nodetypes="cccccccccc"
       inkscape:export-filename="/Users/patrick/fire0.png"
       inkscape:export-xdpi="22.851707"
       inkscape:export-ydpi="22.851707" />
  </g>
</svg>
