<?xml version="1.0" encoding="UTF-8" standalone="no"?>
<!-- Created with Inkscape (http://www.inkscape.org/) -->
<svg
   xmlns:dc="http://purl.org/dc/elements/1.1/"
   xmlns:cc="http://creativecommons.org/ns#"
   xmlns:rdf="http://www.w3.org/1999/02/22-rdf-syntax-ns#"
   xmlns:svg="http://www.w3.org/2000/svg"
   xmlns="http://www.w3.org/2000/svg"
   xmlns:sodipodi="http://sodipodi.sourceforge.net/DTD/sodipodi-0.dtd"
   xmlns:inkscape="http://www.inkscape.org/namespaces/inkscape"
   width="744.09448819"
   height="1052.3622047"
   id="svg3445"
   sodipodi:version="0.32"
   inkscape:version="0.46"
   sodipodi:docname="title.svg"
   inkscape:output_extension="org.inkscape.output.svg.inkscape">
  <sodipodi:namedview
     id="base"
     pagecolor="#ffffff"
     bordercolor="#666666"
     borderopacity="1.0"
     gridtolerance="10000"
     guidetolerance="10"
     objecttolerance="10"
     inkscape:pageopacity="0.0"
     inkscape:pageshadow="2"
     inkscape:zoom="0.7"
     inkscape:cx="496.98925"
     inkscape:cy="668.99236"
     inkscape:document-units="px"
     inkscape:current-layer="layer1"
     showgrid="false"
     inkscape:window-width="663"
     inkscape:window-height="701"
     inkscape:window-x="296"
     inkscape:window-y="36" />
  <defs
     id="defs3447">
    <inkscape:perspective
       id="perspective3453"
       inkscape:persp3d-origin="372.04724 : 350.78739 : 1"
       inkscape:vp_z="744.09448 : 526.18109 : 1"
       inkscape:vp_y="0 : 1000 : 0"
       inkscape:vp_x="0 : 526.18109 : 1"
       sodipodi:type="inkscape:persp3d" />
  </defs>
  <metadata
     id="metadata3450">
    <rdf:RDF>
      <cc:Work
         rdf:about="">
        <dc:format>image/svg+xml</dc:format>
        <dc:type
           rdf:resource="http://purl.org/dc/dcmitype/StillImage" />
      </cc:Work>
    </rdf:RDF>
  </metadata>
  <g
     id="layer1"
     inkscape:groupmode="layer"
     inkscape:label="Layer 1">
    <g
       id="g4298"
       inkscape:export-filename="/Applications/Inkscape.app/title.png"
       inkscape:export-xdpi="127.38576"
       inkscape:export-ydpi="127.38576">
      <path
         style="font-size:72px;font-style:normal;font-variant:normal;font-weight:normal;font-stretch:normal;fill:#000000;fill-opacity:1;stroke:none;stroke-width:1px;stroke-linecap:butt;stroke-linejoin:miter;stroke-opacity:1;font-family:Arial Black;-inkscape-font-specification:Arial Black"
         d="M160.01933 431.207715348C160.01933 431.207715348 174.644647882 426.220996027 174.644647882 426.220996027C174.961335841 430.060215966 175.606072373 432.873232416 176.578847825 434.655264331C178.162393795 437.500603878 180.424613353 438.480047958 183.365535458 437.626912615C185.55987125 436.990382095 187.245228392 435.706636289 188.421616538 433.788162874C189.620571477 431.845305078 190.220058598 429.834623279 190.220097207 427.743099559C190.220058598 425.756211336 189.654498882 424.112709015 188.523418059 422.800554394C187.392279324 421.47244115 184.768093439 420.540285255 180.650860405 419.977190844C173.909402878 418.886951837 169.10217425 416.448539464 166.229155217 412.693287125C163.333492175 408.841101509 161.88566548 403.495445108 161.885675132 396.732261656C161.88566548 392.289105012 162.62089118 388.052380612 164.09134258 384.056809175C165.584409033 380.068161902 167.812701186 376.957327369 170.776228692 374.728571857C173.762361599 372.515638064 177.845676879 371.429578522 183.02620349 371.4295C189.383041029 371.429574646 194.224206715 373.226530517 197.549719851 376.737872807C200.897770822 380.105281097 202.888532528 385.478586383 203.522004968 392.905953478C203.522004968 392.905953478 189.032425665 395.715931618 189.032425665 395.715931618C188.647815329 392.282469213 187.833412813 389.821792504 186.589218117 388.329669593C185.36758056 386.818483214 183.670911065 386.126400864 181.499199979 386.266377359C179.712012358 386.3817105 178.365987184 387.092831478 177.461124456 388.407053569C176.556213468 389.694081323 176.103767625 391.231028086 176.10378693 393.010870691C176.103767625 394.308781125 176.477027 395.438723054 177.223584357 396.395772456C177.9474784 397.385641784 179.6667726 398.180663066 182.381466958 398.769764595C189.100261171 400.210529766 193.907489799 401.816635227 196.803181798 403.644556113C199.721411633 405.37537318 201.836599564 407.711778878 203.148735942 410.668504034C204.483400502 413.580625378 205.150761739 416.97179275 205.15081 420.872589557C205.150761739 425.456100879 204.268485108 429.930988528 202.50399941 434.346860604C200.739417191 438.828926675 198.273584937 442.657126682 195.106512303 445.828252376C191.939352799 449.026678792 187.946526687 451.511500551 183.128005011 453.237104663C174.667253283 456.26706052 168.808082039 455.61275475 165.550481628 451.163378377C162.292871564 446.566271751 160.449151137 439.884961131 160.01933 431.207715348"
         id="path3490" />
      <path
         style="font-size:72px;font-style:normal;font-variant:normal;font-weight:normal;font-stretch:normal;fill:#000000;fill-opacity:1;stroke:none;stroke-width:1px;stroke-linecap:butt;stroke-linejoin:miter;stroke-opacity:1;font-family:Arial Black;-inkscape-font-specification:Arial Black"
         d="M248.312394313 370.843004162C248.312394313 370.843004162 264.15489 370.76176 264.15489 370.76176C264.15489 370.76176 264.15489 406.946244069 264.15489 406.946244069C264.154839987 410.534355132 263.674108363 413.997952008 262.712323205 417.351774843C261.773389274 420.693674321 260.28262123 423.758942921 258.239770634 426.556820366C256.21951732 429.353310356 254.093437313 431.474526254 251.861847559 432.907873496C248.760409062 434.932980584 245.036966557 436.394463388 240.692029506 437.272273137C238.178962568 437.779989275 235.43155833 438.109188292 232.449949746 438.253968915C229.491981937 438.386204696 227.016888159 437.967991623 225.024797017 436.993572764C223.033170111 435.972477566 221.208111638 434.324708142 219.549772005 432.044062589C217.915494015 429.735432518 216.798267335 427.240397838 216.197812579 424.569753899C215.228259373 420.253106556 214.749827336 416.360044272 214.762014348 412.908758136C214.762014348 412.908758136 214.90995 371.0143 214.90995 371.0143C214.90995 371.0143 230.752455656 370.933055787 230.752455656 370.933055787C230.752455656 370.933055787 230.649701135 411.953046309 230.649701135 411.953046309C230.640496304 415.619665667 231.407139458 418.381716926 232.950011036 420.225297383C234.516840362 422.016553858 236.684511863 422.687802833 239.452694973 422.252981111C242.197346588 421.821880973 244.345325174 420.51631746 245.896280906 418.349769457C247.470190718 416.16885544 248.259189807 413.316238785 248.263658702 409.777989684C248.263658702 409.777989684 248.312394313 370.843004162 248.312394313 370.843004162"
         id="path3488" />
      <path
         id="path3486"
         style="font-size:72px;font-style:normal;font-variant:normal;font-weight:normal;font-stretch:normal;fill:#000000;fill-opacity:1;stroke:none;stroke-width:1px;stroke-linecap:butt;stroke-linejoin:miter;stroke-opacity:1;font-family:Arial Black;-inkscape-font-specification:Arial Black"
         d="M274.50894 371.26682C274.50894 371.26682 304.379635954 371.26682 304.379635954 371.26682C309.358045202 371.26688468 313.174069819 372.58424342 315.827719826 375.199984457C318.504765413 377.79028278 319.843303236 380.997116247 319.843353334 384.839586015C319.843303236 388.062379603 318.892230296 390.860525427 316.990144534 393.246050102C315.721993844 394.845366354 313.866819477 396.152758165 311.424611415 397.168846945C315.13492007 397.945958562 317.858967229 399.443875886 319.59678295 401.66118484C321.357974212 403.837773436 322.238589883 406.64827695 322.23865 410.103710596C322.238589883 412.917461578 321.616287474 415.497840047 320.371732755 417.852557359C319.127067821 420.217573038 317.424530833 422.162565037 315.264121789 423.687617402C313.925533868 424.641795186 311.905969226 425.440390283 309.205437883 426.083152466C305.612467834 426.945117004 303.228924065 427.437064635 302.054796557 427.554099512C302.054796557 427.554099512 274.50894 430.29982 274.50894 430.29982C274.50894 430.29982 274.50894 371.26682 274.50894 371.26682M290.606702666 393.791607181C290.606702666 393.791607181 297.546012262 393.520306894 297.546012262 393.520306894C300.035201857 393.423022046 301.761214582 392.894565771 302.724060459 391.937272945C303.710321955 390.956865432 304.203472742 389.588150452 304.20351282 387.828657991C304.203472742 386.196743574 303.710321955 384.933751546 302.724060459 384.03725696C301.761214582 383.137138838 300.070430491 382.710296033 297.651678127 382.759096509C297.651678127 382.759096509 290.606702666 382.901362829 290.606702666 382.901362829C290.606702666 382.901362829 290.606702666 393.791607181 290.606702666 393.791607181M290.606702666 416.355560928C290.606702666 416.355560928 298.743655585 415.71876071 298.743655585 415.71876071C301.491158442 415.503751298 303.428532956 414.828673416 304.555759088 413.696671147C305.682915084 412.543461498 306.246513121 411.079220146 306.246553199 409.300728491C306.246513121 407.649311268 305.682915084 406.36341537 304.555759088 405.440051993C303.452008693 404.485829385 301.50290132 404.088338368 298.708426951 404.250581203C298.708426951 404.250581203 290.606702666 404.721018098 290.606702666 404.721018098C290.606702666 404.721018098 290.606702666 416.355560928 290.606702666 416.355560928" />
      <path
         id="path3478"
         style="font-size:72px;font-style:normal;font-variant:normal;font-weight:normal;font-stretch:normal;fill:#000000;fill-opacity:1;stroke:none;stroke-width:1px;stroke-linecap:butt;stroke-linejoin:miter;stroke-opacity:1;font-family:Arial Black;-inkscape-font-specification:Arial Black"
         d="M389.10715 424.86216C389.10715 424.86216 389.10715 371.29074 389.10715 371.29074C389.10715 371.29074 415.847037803 371.29074 415.847037803 371.29074C420.805392101 371.29080443 424.595019665 371.745561246 427.215920495 372.658631873C429.836740732 373.576611188 431.949952842 375.286708922 433.555576974 377.791339863C435.161100365 380.278537966 435.963882209 383.313846536 435.96393258 386.891333686C435.963882209 390.008932903 435.349991396 392.691762694 434.122250067 394.935675123C432.894407996 397.148612058 431.206195667 398.923447536 429.057603008 400.259827727C427.688107775 401.107100011 425.811004416 401.78447738 423.426292931 402.291717671C425.338776839 403.034173849 426.731845673 403.762277724 427.605509505 404.474969954C428.195746124 404.951071384 429.045755762 405.956819032 430.155538421 407.494316904C431.288834234 409.036077423 432.044398357 410.222767359 432.42223079 411.052285577C432.42223079 411.052285577 440.17857 427.71931 440.17857 427.71931C440.17857 427.71931 422.045031046 426.704843576 422.045031046 426.704843576C422.045031046 426.704843576 413.474092969 409.437694847 413.474092969 409.437694847C412.387944357 407.224515761 411.419875306 405.780550877 410.56989589 405.103005992C409.412915659 404.217212761 408.102485393 403.750722296 406.63860509 403.702044145C406.63860509 403.702044145 405.221922359 403.654955963 405.221922359 403.654955963C405.221922359 403.654955963 405.221922359 425.763688131 405.221922359 425.763688131C405.221922359 425.763688131 389.10715 424.86216 389.10715 424.86216M405.221922359 393.362321243C405.221922359 393.362321243 411.986578621 393.515660519 411.986578621 393.515660519C412.718508698 393.532283651 414.135181354 393.314406619 416.236626813 392.860436756C417.299111157 392.658039594 418.16091767 392.099391806 418.822076574 391.183946735C419.506768783 390.267784001 419.849129998 389.205751924 419.849170295 387.998806608C419.849129998 386.213640707 419.317877752 384.836021996 418.255403482 383.867480289C417.192858693 382.901088439 415.197695921 382.402105766 412.269915167 382.368981073C412.269915167 382.368981073 405.221922359 382.289369127 405.221922359 382.289369127C405.221922359 382.289369127 405.221922359 393.362321243 405.221922359 393.362321243" />
      <path
         id="path3474"
         style="font-size:72px;font-style:normal;font-variant:normal;font-weight:normal;font-stretch:normal;fill:#000000;fill-opacity:1;stroke:none;stroke-width:1px;stroke-linecap:butt;stroke-linejoin:miter;stroke-opacity:1;font-family:Arial Black;-inkscape-font-specification:Arial Black"
         d="M444.64285 370.93362C444.64285 370.93362 475.040313527 370.93362 475.040313527 370.93362C480.106516663 370.933691988 483.9898366 372.422269247 486.690283534 375.42498539C489.414538627 378.462319273 490.776681468 382.222975085 490.776732449 386.68111643C490.776681468 390.420286326 489.808836426 393.58134537 487.873207518 396.148042979C486.582693082 397.847191883 484.694802849 399.131357202 482.209526623 399.999672713C485.985266304 401.315564269 488.757351838 403.36957814 490.525813814 406.163598484C492.318063558 408.950507298 493.214208823 412.375040853 493.21427 416.422315189C493.214208823 419.71798094 492.580932156 422.612946337 491.314429804 425.096818218C490.047815294 427.566827886 488.315254188 429.421425023 486.116746486 430.660496065C484.754552664 431.425773766 482.699373145 431.840932753 479.951218125 431.906311139C476.294886309 431.986804949 473.869308917 431.944687621 472.674475754 431.786547945C472.674475754 431.786547945 444.64285 428.07648 444.64285 428.07648C444.64285 428.07648 444.64285 370.93362 444.64285 370.93362M461.024495552 394.196813337C461.024495552 394.196813337 468.086179373 394.563399266 468.086179373 394.563399266C470.619265647 394.694932031 472.375716483 394.288328627 473.355542077 393.340380993C474.359196224 392.361612417 474.861043689 390.911268866 474.861084474 388.992714432C474.861043689 387.213265823 474.359196224 385.806866817 473.355542077 384.776767487C472.375716483 383.751776858 470.655115536 383.207844902 468.193708648 383.141798545C468.193708648 383.141798545 461.024495552 382.949565681 461.024495552 382.949565681C461.024495552 382.949565681 461.024495552 394.196813337 461.024495552 394.196813337M461.024495552 417.500457197C461.024495552 417.500457197 469.30494305 418.360913345 469.30494305 418.360913345C472.100897922 418.651464575 474.072437896 418.28731286 475.21954258 417.264209855C476.36657589 416.207575898 476.940112938 414.699536557 476.940153723 412.744440864C476.940112938 410.929025228 476.36657589 409.42904146 475.21954258 408.248528083C474.096327626 407.047552076 472.112847885 406.339453114 469.269093161 406.120174488C469.269093161 406.120174488 461.024495552 405.484511516 461.024495552 405.484511516C461.024495552 405.484511516 461.024495552 417.500457197 461.024495552 417.500457197" />
      <path
         style="font-size:72px;font-style:normal;font-variant:normal;font-weight:normal;font-stretch:normal;fill:#000000;fill-opacity:1;stroke:none;stroke-width:1px;stroke-linecap:butt;stroke-linejoin:miter;stroke-opacity:1;font-family:Arial Black;-inkscape-font-specification:Arial Black"
         d="M 501.81836,371.30099 L 517.7793,371.30099 L 517.7793,439.98292 L 501.81836,436.76863 L 501.81836,371.30099"
         id="path3468"
         sodipodi:nodetypes="ccccc" />
      <path
         id="path3466"
         style="font-size:72px;font-style:normal;font-variant:normal;font-weight:normal;font-stretch:normal;fill:#000000;fill-opacity:1;stroke:none;stroke-width:1px;stroke-linecap:butt;stroke-linejoin:miter;stroke-opacity:1;font-family:Arial Black;-inkscape-font-specification:Arial Black"
         d="M561.644723878 441.019515659C561.644723878 441.019515659 543.285440875 435.620755477 543.285440875 435.620755477C543.285440875 435.620755477 540.75926356 447.449886723 540.75926356 447.449886723C540.75926356 447.449886723 524.28571 441.64788 524.28571 441.64788C524.28571 441.64788 543.890304935 371.29074 543.890304935 371.29074C543.890304935 371.29074 561.466825065 371.29074 561.466825065 371.29074C561.466825065 371.29074 581.07142 461.64788 581.07142 461.64788C581.07142 461.64788 564.206485003 455.708028232 564.206485003 455.708028232C564.206485003 455.708028232 561.644723878 441.019515659 561.644723878 441.019515659M558.264626188 422.224141159C558.264626188 422.224141159 552.500666187 392.103776035 552.500666187 392.103776035C552.500666187 392.103776035 546.772279876 419.719918675 546.772279876 419.719918675C546.772279876 419.719918675 558.264626188 422.224141159 558.264626188 422.224141159" />
      <path
         style="font-size:72px;font-style:normal;font-variant:normal;font-weight:normal;font-stretch:normal;fill:#000000;fill-opacity:1;stroke:none;stroke-width:1px;stroke-linecap:butt;stroke-linejoin:miter;stroke-opacity:1;font-family:Arial Black;-inkscape-font-specification:Arial Black"
         d="M362.358648297 371.29074C362.358648297 371.29074 378.21427 371.29074 378.21427 371.29074C378.21427 371.29074 378.21427 402.463190656 378.21427 402.463190656C378.214210132 405.554295369 377.734808623 408.483793953 376.776035539 411.252766935C375.840551034 413.999154568 374.355549831 416.420470573 372.321031929 418.517419736C370.309802607 420.592527991 368.193385534 422.063346589 365.971770731 422.928971178C362.884796592 424.142209778 359.178140674 424.780913749 354.851792999 424.843613944C352.349477966 424.879879092 349.613329225 424.739813247 346.643346774 424.422983674C343.696712772 424.105234171 341.229510213 423.431892978 339.241729118 422.402519519C337.253908112 421.347968417 335.429815603 419.845091549 333.769431635 417.893425298C332.132416071 415.939735596 331.009894534 413.918176983 330.401867023 411.829549793C329.419655689 408.467162649 328.928569978 405.484080754 328.92856 402.881609432C328.92856 402.881609432 328.92856 371.29074 328.92856 371.29074C328.92856 371.29074 344.784171725 371.29074 344.784171725 371.29074C344.784171725 371.29074 344.784171725 403.502813306 344.784171725 403.502813306C344.784151769 406.382124867 345.555887821 408.629785623 347.09937988 410.244786291C348.66620043 411.834241343 350.829394223 412.613030663 353.588951281 412.582194536C356.325070089 412.551640655 358.464875522 411.738863937 360.008377559 410.144833422C361.575188131 408.528029498 362.358618363 406.263437274 362.358648297 403.350027107C362.358648297 403.350027107 362.358648297 371.29074 362.358648297 371.29074"
         id="path3480" />
    </g>
    <g
       id="g4308"
       transform="translate(2.8571429,-5.7142871)"
       style="fill:#55ff55"
       inkscape:export-filename="/Applications/Inkscape.app/title.png"
       inkscape:export-xdpi="127.38576"
       inkscape:export-ydpi="127.38576">
      <path
         id="path4310"
         d="M 160.01933,431.20772 C 160.01933,431.20772 174.64465,426.221 174.64465,426.221 C 174.96134,430.06022 175.60607,432.87323 176.57885,434.65526 C 178.16239,437.5006 180.42461,438.48005 183.36554,437.62691 C 185.55987,436.99038 187.24523,435.70664 188.42162,433.78816 C 189.62057,431.84531 190.22006,429.83462 190.2201,427.7431 C 190.22006,425.75621 189.6545,424.11271 188.52342,422.80055 C 187.39228,421.47244 184.76809,420.54029 180.65086,419.97719 C 173.9094,418.88695 169.10217,416.44854 166.22916,412.69329 C 163.33349,408.8411 161.88567,403.49545 161.88568,396.73226 C 161.88567,392.28911 162.62089,388.05238 164.09134,384.05681 C 165.58441,380.06816 167.8127,376.95733 170.77623,374.72857 C 173.76236,372.51564 177.84568,371.42958 183.0262,371.4295 C 189.38304,371.42957 194.22421,373.22653 197.54972,376.73787 C 200.89777,380.10528 202.88853,385.47859 203.522,392.90595 C 203.522,392.90595 189.03243,395.71593 189.03243,395.71593 C 188.64782,392.28247 187.83341,389.82179 186.58922,388.32967 C 185.36758,386.81848 183.67091,386.1264 181.4992,386.26638 C 179.71201,386.38171 178.36599,387.09283 177.46112,388.40705 C 176.55621,389.69408 176.10377,391.23103 176.10379,393.01087 C 176.10377,394.30878 176.47703,395.43872 177.22358,396.39577 C 177.94748,397.38564 179.66677,398.18066 182.38147,398.76976 C 189.10026,400.21053 193.90749,401.81664 196.80318,403.64456 C 199.72141,405.37537 201.8366,407.71178 203.14874,410.6685 C 204.4834,413.58063 205.15076,416.97179 205.15081,420.87259 C 205.15076,425.4561 204.26849,429.93099 202.504,434.34686 C 200.73942,438.82893 198.27358,442.65713 195.10651,445.82825 C 191.93935,449.02668 187.94653,451.5115 183.12801,453.2371 C 174.66725,456.26706 168.80808,455.61275 165.55048,451.16338 C 162.29287,446.56627 160.44915,439.88496 160.01933,431.20772"
         style="font-size:72px;font-style:normal;font-variant:normal;font-weight:normal;font-stretch:normal;fill:#55ff55;fill-opacity:1;stroke:none;stroke-width:1px;stroke-linecap:butt;stroke-linejoin:miter;stroke-opacity:1;font-family:Arial Black;-inkscape-font-specification:Arial Black" />
      <path
         id="path4312"
         d="M 248.31239,370.843 C 248.31239,370.843 264.15489,370.76176 264.15489,370.76176 C 264.15489,370.76176 264.15489,406.94624 264.15489,406.94624 C 264.15484,410.53436 263.67411,413.99795 262.71232,417.35177 C 261.77339,420.69367 260.28262,423.75894 258.23977,426.55682 C 256.21952,429.35331 254.09344,431.47453 251.86185,432.90787 C 248.76041,434.93298 245.03697,436.39446 240.69203,437.27227 C 238.17896,437.77999 235.43156,438.10919 232.44995,438.25397 C 229.49198,438.3862 227.01689,437.96799 225.0248,436.99357 C 223.03317,435.97248 221.20811,434.32471 219.54977,432.04406 C 217.91549,429.73543 216.79827,427.2404 216.19781,424.56975 C 215.22826,420.25311 214.74983,416.36004 214.76201,412.90876 C 214.76201,412.90876 214.90995,371.0143 214.90995,371.0143 C 214.90995,371.0143 230.75246,370.93306 230.75246,370.93306 C 230.75246,370.93306 230.6497,411.95305 230.6497,411.95305 C 230.6405,415.61967 231.40714,418.38172 232.95001,420.2253 C 234.51684,422.01655 236.68451,422.6878 239.45269,422.25298 C 242.19735,421.82188 244.34533,420.51632 245.89628,418.34977 C 247.47019,416.16886 248.25919,413.31624 248.26366,409.77799 C 248.26366,409.77799 248.31239,370.843 248.31239,370.843"
         style="font-size:72px;font-style:normal;font-variant:normal;font-weight:normal;font-stretch:normal;fill:#55ff55;fill-opacity:1;stroke:none;stroke-width:1px;stroke-linecap:butt;stroke-linejoin:miter;stroke-opacity:1;font-family:Arial Black;-inkscape-font-specification:Arial Black" />
      <path
         d="M 274.50894,371.26682 C 274.50894,371.26682 304.37964,371.26682 304.37964,371.26682 C 309.35805,371.26688 313.17407,372.58424 315.82772,375.19998 C 318.50477,377.79028 319.8433,380.99712 319.84335,384.83959 C 319.8433,388.06238 318.89223,390.86053 316.99014,393.24605 C 315.72199,394.84537 313.86682,396.15276 311.42461,397.16885 C 315.13492,397.94596 317.85897,399.44388 319.59678,401.66118 C 321.35797,403.83777 322.23859,406.64828 322.23865,410.10371 C 322.23859,412.91746 321.61629,415.49784 320.37173,417.85256 C 319.12707,420.21757 317.42453,422.16257 315.26412,423.68762 C 313.92553,424.6418 311.90597,425.44039 309.20544,426.08315 C 305.61247,426.94512 303.22892,427.43706 302.0548,427.5541 C 302.0548,427.5541 274.50894,430.29982 274.50894,430.29982 C 274.50894,430.29982 274.50894,371.26682 274.50894,371.26682 M 290.6067,393.79161 C 290.6067,393.79161 297.54601,393.52031 297.54601,393.52031 C 300.0352,393.42302 301.76121,392.89457 302.72406,391.93727 C 303.71032,390.95687 304.20347,389.58815 304.20351,387.82866 C 304.20347,386.19674 303.71032,384.93375 302.72406,384.03726 C 301.76121,383.13714 300.07043,382.7103 297.65168,382.7591 C 297.65168,382.7591 290.6067,382.90136 290.6067,382.90136 C 290.6067,382.90136 290.6067,393.79161 290.6067,393.79161 M 290.6067,416.35556 C 290.6067,416.35556 298.74366,415.71876 298.74366,415.71876 C 301.49116,415.50375 303.42853,414.82867 304.55576,413.69667 C 305.68292,412.54346 306.24651,411.07922 306.24655,409.30073 C 306.24651,407.64931 305.68292,406.36342 304.55576,405.44005 C 303.45201,404.48583 301.5029,404.08834 298.70843,404.25058 C 298.70843,404.25058 290.6067,404.72102 290.6067,404.72102 C 290.6067,404.72102 290.6067,416.35556 290.6067,416.35556"
         style="font-size:72px;font-style:normal;font-variant:normal;font-weight:normal;font-stretch:normal;fill:#55ff55;fill-opacity:1;stroke:none;stroke-width:1px;stroke-linecap:butt;stroke-linejoin:miter;stroke-opacity:1;font-family:Arial Black;-inkscape-font-specification:Arial Black"
         id="path4314" />
      <path
         d="M 389.10715,424.86216 C 389.10715,424.86216 389.10715,371.29074 389.10715,371.29074 C 389.10715,371.29074 415.84704,371.29074 415.84704,371.29074 C 420.80539,371.2908 424.59502,371.74556 427.21592,372.65863 C 429.83674,373.57661 431.94995,375.28671 433.55558,377.79134 C 435.1611,380.27854 435.96388,383.31385 435.96393,386.89133 C 435.96388,390.00893 435.34999,392.69176 434.12225,394.93568 C 432.89441,397.14861 431.2062,398.92345 429.0576,400.25983 C 427.68811,401.1071 425.811,401.78448 423.42629,402.29172 C 425.33878,403.03417 426.73185,403.76228 427.60551,404.47497 C 428.19575,404.95107 429.04576,405.95682 430.15554,407.49432 C 431.28883,409.03608 432.0444,410.22277 432.42223,411.05229 C 432.42223,411.05229 440.17857,427.71931 440.17857,427.71931 C 440.17857,427.71931 422.04503,426.70484 422.04503,426.70484 C 422.04503,426.70484 413.47409,409.43769 413.47409,409.43769 C 412.38794,407.22452 411.41988,405.78055 410.5699,405.10301 C 409.41292,404.21721 408.10249,403.75072 406.63861,403.70204 C 406.63861,403.70204 405.22192,403.65496 405.22192,403.65496 C 405.22192,403.65496 405.22192,425.76369 405.22192,425.76369 C 405.22192,425.76369 389.10715,424.86216 389.10715,424.86216 M 405.22192,393.36232 C 405.22192,393.36232 411.98658,393.51566 411.98658,393.51566 C 412.71851,393.53228 414.13518,393.31441 416.23663,392.86044 C 417.29911,392.65804 418.16092,392.09939 418.82208,391.18395 C 419.50677,390.26778 419.84913,389.20575 419.84917,387.99881 C 419.84913,386.21364 419.31788,384.83602 418.2554,383.86748 C 417.19286,382.90109 415.1977,382.40211 412.26992,382.36898 C 412.26992,382.36898 405.22192,382.28937 405.22192,382.28937 C 405.22192,382.28937 405.22192,393.36232 405.22192,393.36232"
         style="font-size:72px;font-style:normal;font-variant:normal;font-weight:normal;font-stretch:normal;fill:#55ff55;fill-opacity:1;stroke:none;stroke-width:1px;stroke-linecap:butt;stroke-linejoin:miter;stroke-opacity:1;font-family:Arial Black;-inkscape-font-specification:Arial Black"
         id="path4316" />
      <path
         d="M 444.64285,370.93362 C 444.64285,370.93362 475.04031,370.93362 475.04031,370.93362 C 480.10652,370.93369 483.98984,372.42227 486.69028,375.42499 C 489.41454,378.46232 490.77668,382.22298 490.77673,386.68112 C 490.77668,390.42029 489.80884,393.58135 487.87321,396.14804 C 486.58269,397.84719 484.6948,399.13136 482.20953,399.99967 C 485.98527,401.31556 488.75735,403.36958 490.52581,406.1636 C 492.31806,408.95051 493.21421,412.37504 493.21427,416.42232 C 493.21421,419.71798 492.58093,422.61295 491.31443,425.09682 C 490.04782,427.56683 488.31525,429.42143 486.11675,430.6605 C 484.75455,431.42577 482.69937,431.84093 479.95122,431.90631 C 476.29489,431.9868 473.86931,431.94469 472.67448,431.78655 C 472.67448,431.78655 444.64285,428.07648 444.64285,428.07648 C 444.64285,428.07648 444.64285,370.93362 444.64285,370.93362 M 461.0245,394.19681 C 461.0245,394.19681 468.08618,394.5634 468.08618,394.5634 C 470.61927,394.69493 472.37572,394.28833 473.35554,393.34038 C 474.3592,392.36161 474.86104,390.91127 474.86108,388.99271 C 474.86104,387.21327 474.3592,385.80687 473.35554,384.77677 C 472.37572,383.75178 470.65512,383.20784 468.19371,383.1418 C 468.19371,383.1418 461.0245,382.94957 461.0245,382.94957 C 461.0245,382.94957 461.0245,394.19681 461.0245,394.19681 M 461.0245,417.50046 C 461.0245,417.50046 469.30494,418.36091 469.30494,418.36091 C 472.1009,418.65146 474.07244,418.28731 475.21954,417.26421 C 476.36658,416.20758 476.94011,414.69954 476.94015,412.74444 C 476.94011,410.92903 476.36658,409.42904 475.21954,408.24853 C 474.09633,407.04755 472.11285,406.33945 469.26909,406.12017 C 469.26909,406.12017 461.0245,405.48451 461.0245,405.48451 C 461.0245,405.48451 461.0245,417.50046 461.0245,417.50046"
         style="font-size:72px;font-style:normal;font-variant:normal;font-weight:normal;font-stretch:normal;fill:#55ff55;fill-opacity:1;stroke:none;stroke-width:1px;stroke-linecap:butt;stroke-linejoin:miter;stroke-opacity:1;font-family:Arial Black;-inkscape-font-specification:Arial Black"
         id="path4318" />
      <path
         sodipodi:nodetypes="ccccc"
         id="path4320"
         d="M 501.81836,371.30099 L 517.7793,371.30099 L 517.7793,439.98292 L 501.81836,436.76863 L 501.81836,371.30099"
         style="font-size:72px;font-style:normal;font-variant:normal;font-weight:normal;font-stretch:normal;fill:#55ff55;fill-opacity:1;stroke:none;stroke-width:1px;stroke-linecap:butt;stroke-linejoin:miter;stroke-opacity:1;font-family:Arial Black;-inkscape-font-specification:Arial Black" />
      <path
         d="M 561.64472,441.01952 C 561.64472,441.01952 543.28544,435.62076 543.28544,435.62076 C 543.28544,435.62076 540.75926,447.44989 540.75926,447.44989 C 540.75926,447.44989 524.28571,441.64788 524.28571,441.64788 C 524.28571,441.64788 543.8903,371.29074 543.8903,371.29074 C 543.8903,371.29074 561.46683,371.29074 561.46683,371.29074 C 561.46683,371.29074 581.07142,461.64788 581.07142,461.64788 C 581.07142,461.64788 564.20649,455.70803 564.20649,455.70803 C 564.20649,455.70803 561.64472,441.01952 561.64472,441.01952 M 558.26463,422.22414 C 558.26463,422.22414 552.50067,392.10378 552.50067,392.10378 C 552.50067,392.10378 546.77228,419.71992 546.77228,419.71992 C 546.77228,419.71992 558.26463,422.22414 558.26463,422.22414"
         style="font-size:72px;font-style:normal;font-variant:normal;font-weight:normal;font-stretch:normal;fill:#55ff55;fill-opacity:1;stroke:none;stroke-width:1px;stroke-linecap:butt;stroke-linejoin:miter;stroke-opacity:1;font-family:Arial Black;-inkscape-font-specification:Arial Black"
         id="path4322" />
      <path
         id="path4324"
         d="M 362.35865,371.29074 C 362.35865,371.29074 378.21427,371.29074 378.21427,371.29074 C 378.21427,371.29074 378.21427,402.46319 378.21427,402.46319 C 378.21421,405.5543 377.73481,408.48379 376.77604,411.25277 C 375.84055,413.99915 374.35555,416.42047 372.32103,418.51742 C 370.3098,420.59253 368.19339,422.06335 365.97177,422.92897 C 362.8848,424.14221 359.17814,424.78091 354.85179,424.84361 C 352.34948,424.87988 349.61333,424.73981 346.64335,424.42298 C 343.69671,424.10523 341.22951,423.43189 339.24173,422.40252 C 337.25391,421.34797 335.42982,419.84509 333.76943,417.89343 C 332.13242,415.93974 331.00989,413.91818 330.40187,411.82955 C 329.41966,408.46716 328.92857,405.48408 328.92856,402.88161 C 328.92856,402.88161 328.92856,371.29074 328.92856,371.29074 C 328.92856,371.29074 344.78417,371.29074 344.78417,371.29074 C 344.78417,371.29074 344.78417,403.50281 344.78417,403.50281 C 344.78415,406.38212 345.55589,408.62979 347.09938,410.24479 C 348.6662,411.83424 350.82939,412.61303 353.58895,412.58219 C 356.32507,412.55164 358.46488,411.73886 360.00838,410.14483 C 361.57519,408.52803 362.35862,406.26344 362.35865,403.35003 C 362.35865,403.35003 362.35865,371.29074 362.35865,371.29074"
         style="font-size:72px;font-style:normal;font-variant:normal;font-weight:normal;font-stretch:normal;fill:#55ff55;fill-opacity:1;stroke:none;stroke-width:1px;stroke-linecap:butt;stroke-linejoin:miter;stroke-opacity:1;font-family:Arial Black;-inkscape-font-specification:Arial Black" />
    </g>
  </g>
</svg>
