<?xml version="1.0" encoding="UTF-8" standalone="no"?>
<!-- Generator: Adobe Illustrator 14.0.0, SVG Export Plug-In . SVG Version: 6.00 Build 43363)  -->
<svg
   xmlns:dc="http://purl.org/dc/elements/1.1/"
   xmlns:cc="http://creativecommons.org/ns#"
   xmlns:rdf="http://www.w3.org/1999/02/22-rdf-syntax-ns#"
   xmlns:svg="http://www.w3.org/2000/svg"
   xmlns="http://www.w3.org/2000/svg"
   xmlns:sodipodi="http://sodipodi.sourceforge.net/DTD/sodipodi-0.dtd"
   xmlns:inkscape="http://www.inkscape.org/namespaces/inkscape"
   version="1.1"
   id="Layer_1"
   x="0px"
   y="0px"
   width="200px"
   height="200px"
   viewBox="0 0 200 200"
   enable-background="new 0 0 200 200"
   xml:space="preserve"
   sodipodi:version="0.32"
   inkscape:version="0.46"
   sodipodi:docname="bigtree_t.svg"
   inkscape:output_extension="org.inkscape.output.svg.inkscape"><metadata
   id="metadata118"><rdf:RDF><cc:Work
       rdf:about=""><dc:format>image/svg+xml</dc:format><dc:type
         rdf:resource="http://purl.org/dc/dcmitype/StillImage" /></cc:Work></rdf:RDF></metadata><defs
   id="defs116"><inkscape:perspective
     sodipodi:type="inkscape:persp3d"
     inkscape:vp_x="0 : 100 : 1"
     inkscape:vp_y="0 : 1000 : 0"
     inkscape:vp_z="200 : 100 : 1"
     inkscape:persp3d-origin="100 : 66.666667 : 1"
     id="perspective120" /></defs><sodipodi:namedview
   inkscape:window-height="726"
   inkscape:window-width="641"
   inkscape:pageshadow="2"
   inkscape:pageopacity="0.0"
   guidetolerance="10.0"
   gridtolerance="10.0"
   objecttolerance="10.0"
   borderopacity="1.0"
   bordercolor="#666666"
   pagecolor="#ffffff"
   id="base"
   showgrid="false"
   inkscape:zoom="2.47"
   inkscape:cx="100"
   inkscape:cy="100"
   inkscape:window-x="50"
   inkscape:window-y="6"
   inkscape:current-layer="Layer_1" />
<path
   fill="#5E3406"
   stroke="#231401"
   d="M28.561,112.056l1.159-3.091l-6.439,4.377c0,0,3.327-2.75,7.377-5.752  c2.851-2.111,6.06-4.35,8.72-5.838c0,0-11.977-0.129-14.552,0.387l-6.439,4.377l-0.772-0.772l6.696-4.378  c0,0-3.605-1.545-6.311-1.545c-2.704,0-0.129-0.902-0.129-0.902s3.349,0.129,6.182,1.288c0,0,14.423,0.388,16.098-0.128  c1.674-0.516,11.719-3.735,11.719-3.735s-7.083-5.409-8.757-5.667c-1.674-0.257-6.697-0.129-7.856,0.258  c-1.159,0.386-3.348,3.091-3.348,3.091l3.992-4.25c0,0-5.151-3.478-6.825-3.349c-1.674,0.129-7.211,0.129-7.211,0.129l0.128-0.902  l7.469,0.129c0,0-3.606-3.606-5.151-3.735s0.258-0.901,0.258-0.901l5.923,4.507l5.151,3.091l7.212,0.515  c0,0-2.833-7.341-12.75-10.045c-9.916-2.705,0-1.16,0-1.16l6.826,3.349c0,0,0-4.121-0.515-5.924c-0.516-1.803,0.772,2.061,1.03,3.22  c0.258,1.159-0.129,1.545,0.645,2.447c0.772,0.901,6.31,6.182,7.34,8.242c1.031,2.061,8.758,6.182,9.788,6.826  s14.552,4.894,14.681,3.735c0.128-1.16-2.962-7.985-3.477-9.144c-0.515-1.159-0.515-1.159-2.318-2.189  c-1.804-1.031-3.22-3.478-4.379-3.993s-2.447-0.901-4.379-1.288c-1.932-0.387-4.427-1.599-6.568-0.387  c-2.275,1.288-2.575,2.318-3.477,2.318c0,0,3.477-2.962,1.932-3.349c-1.545-0.386-7.598-2.189-8.242-3.091  c-0.644-0.901-0.644-5.022-3.606-6.825c0,0,2.962,0.772,3.864,5.538c0,0-0.257-10.045-4.636-13.136c0,0,5.658,2.586,6.954,11.333  c0.515,3.477,6.182,4.894,7.211,5.022c0,0,6.826,0.644,8.628,1.288c1.803,0.644-3.606-7.341-5.409-8.757  c-1.803-1.417-4.508-2.576-6.568-2.705c-2.06-0.129-0.901-2.447-3.992-3.477c0,0,1.459-0.301,3.348,1.76  c1.889,2.061,6.611,1.545,7.641,2.748c1.03,1.202-2.06-6.01-12.707-11.763c0,0,5.065,2.748,7.04,2.661  c1.975-0.085-0.344-5.58-1.631-7.297c0,0,2.575,3.949,3.606,7.727c1.03,3.777,3.691,5.581,4.636,8.156  c0.944,2.576,6.096,8.843,6.697,10.646c0.601,1.803,5.065,3.778,7.469,7.041c0,0,0.687-7.298-0.515-10.818  c-1.202-3.52-3.52-7.641-5.409-8.929c-1.889-1.288-4.636-2.833-6.01-4.55c0,0,4.551,2.232,6.01,3.348  c1.459,1.116,0.515-8.414-0.085-9.187c-0.601-0.773-3.263-5.065-4.036-6.525c0,0,4.207,5.667,4.894,6.439  c0.629,0.708,0.538-6.655,0.518-8.752c-0.001-0.192-0.003-0.34-0.003-0.434c0-1.116-0.172,16.828,0.687,19.231  s3.778,7.813,4.465,8.414c0.687,0.601,0.858-0.773,0.944-1.803c0.085-1.03,1.974-7.212,2.061-9.272  c0.085-2.061,1.029-7.641,1.116-9.616c0,0-0.397,7.202-0.086,11.248c0.086,1.116,0.774,0.085,1.031-0.086  c0,0,4.208-3.692,5.324-4.98l-0.773,1.975c0,0-4.121,3.692-5.409,5.495c-1.289,1.803-3.005,7.898-3.005,10.217  S69,88.272,69.686,90.333c0.688,2.061,2.834,7.899,3.607,8.929c0.771,1.031,13.479,13.05,14.337,12.707  c0.859-0.343,0.859-2.747,0.687-4.206c-0.172-1.462,0.515-13.48-0.086-15.627c-0.601-2.146-6.868-12.191-7.899-13.564  c-1.03-1.374-3.777-3.606-5.323-4.637c-1.544-1.03-1.201-2.49-1.201-2.49s5.065,3.606,6.095,4.121  c1.03,0.515,1.374-0.601,1.03-2.318c-0.343-1.717-1.803-10.818-2.404-12.192c-0.601-1.373-3.692-4.378-5.236-5.924  c-1.546-1.545,3.862,2.576,4.12,1.803c0.258-0.773-8.156-7.984-10.603-10.432c-2.447-2.447-8.242,2.833-9.788,3.091  c0,0,2.447-1.03,2.833-2.575c0.387-1.546-8.757,0.129-9.916-0.773c0,0,14.682-0.901,15.196-2.189  c0.516-1.288-1.932-5.022-5.537-7.856c-3.606-2.833,4.765,1.417,6.053,3.863c1.287,2.447,0.515-5.151,0.644-6.182  c0,0,0.515-4.893-1.417-7.211c-1.932-2.318-4.507-6.311-4.765-7.469c0,0,5.409,8.113,6.439,7.855  c1.03-0.258,8.499-9.788,9.272-10.688c0.772-0.902-7.727,10.431-7.856,12.105c-0.128,1.674-0.257,9.045-0.257,11.205  c0,1.288-0.645,3.863,1.545,5.924c0,0,4.894,3.992,6.954,5.409s4.766,6.053,6.568,5.151c1.803-0.901,2.705-5.151,0.644-8.371  c-2.06-3.22-4.25-8.5-4.25-11.591s1.029-9.53,1.029-9.53s-0.128,8.371,0.645,10.174c0.772,1.803,4.379-4.121,4.766-5.538  c0.386-1.417-1.289,5.151-2.705,7.47c-1.417,2.317,1.03,6.052,2.188,9.015c1.16,2.962,6.955-1.803,7.084-2.833  c0,0-1.35,4.09-4.25,5.409c-1.417,0.644-2.834,6.052-4.379,7.598c0,0-1.287,1.288-2.318,1.932c-1.031,0.644,0.516,5.538,1.675,7.083  c1.159,1.546,11.719-8.242,12.363-11.204c0.643-2.962-3.735-10.432-1.159-16.484c0,0,0.515,9.917,2.833,13.136  c2.318,3.22-0.387-11.461,2.833-16.227c0,0-1.029,8.757-0.257,10.303c0.773,1.545,18.075-12.917,13.266-22.537  c-1.675-3.349-4.122-4.507-3.865-8.242c0,0,2.061,5.28,5.022,8.371c0,0-0.772-4.765,0.259-9.659c1.03-4.894,2.832-6.696,2.832-8.113  c0-1.417,0.257,1.932,0.257,1.932s-1.802,3.992-1.931,5.924c-0.128,1.932-0.772,5.924,0.129,9.529  c0.902,3.606,2.704-1.287,3.349-2.575s4.378-4.121,7.855-4.121c0,0-4.378,1.932-5.924,4.894c-1.545,2.962-1.545,2.833-0.645,4.379  c0.902,1.545,3.091-1.545,4.38-1.417c1.287,0.129-1.031,2.705-3.863,3.735c-2.834,1.031-5.152,2.189-6.956,7.469  c-1.802,5.28-8.241,9.788-10.302,11.076c-2.06,1.287,3.091,1.932,5.28,0.772c2.189-1.159,8.887-3.219,10.045-6.053  c1.159-2.833,0.257-5.409,1.674-7.211c0,0-0.386,5.151-0.129,7.469c0.259,2.318,4.121-7.856,8.758-9.659  c0,0-1.933,2.446-3.992,7.083c-2.061,4.636,3.349,0.129,3.992,0.129c0,0-3.091,3.863-5.021,4.894c-1.934,1.03-3.607,0-4.508,0.386  c-0.902,0.386-6.439,3.864-9.273,5.022c-2.833,1.159-6.825,1.159-8.757,3.993c-1.932,2.833-5.667,8.371-7.34,9.916  c-1.675,1.545-7.47,5.28-6.568,6.568c0.901,1.288,10.431-0.901,12.62-2.962c2.189-2.061,0.902-5.28,2.962-8.371  c0,0-0.901,3.734-0.128,6.182c0.772,2.446,2.961-7.212,8.37-10.561c0,0-3.992,4.765-4.765,9.015  c-0.773,4.25,7.34-10.818,20.604-12.75c0,0,13.651-2.447,19.446-14.681c0,0-1.803,6.439-5.795,9.659  c-3.992,3.22,2.189,1.288,3.091,0.772c0.901-0.515,6.697-7.469,12.363-9.401c5.667-1.932,7.856-2.447,7.856-2.447l-2.189,0.515  c0,0-3.478,1.804-5.151,2.833c-1.675,1.03-6.053,4.508-7.856,6.697c-1.803,2.19,2.061,2.576,4.765,1.03  c2.705-1.545,9.145-6.053,15.454-6.568c6.311-0.515-5.924,1.803-8.757,5.022s3.348,2.318,4.121,1.932c0,0-2.189,1.417-5.666,1.803  c-3.478,0.387-6.954-0.386-9.529,1.159c-2.577,1.546-4.895,2.189-2.577,3.735c2.318,1.545,7.212-1.03,9.788-1.417  c2.575-0.387,5.28-0.387,8.241,0.258l1.288,1.159c0,0-5.408-0.901-8.628-0.129c-3.22,0.773-5.022,1.288-5.022,2.318  s12.879,1.03,12.879,1.03l0.643,1.674c0,0-10.302,0.515-12.878-0.257c-2.574-0.772-9.144-1.417-10.817-4.636s-4.121-3.22-5.28-2.447  c-1.159,0.772-7.212,2.704-1.287,5.924c5.923,3.22,9.915,3.735,12.491,3.735s8.242-0.129,12.364,0.257l1.931,1.546  c0,0-10.817,0.257-14.81,0c-3.993-0.258-13.136-2.576-18.674-5.924s-7.855,1.674-10.174,2.962c-2.318,1.288-7.599,5.794-5.28,7.984  c2.318,2.189,4.894-3.134,7.642-3.993c2.747-0.858,5.494-0.687,5.494-0.687l1.375,1.545c0,0-3.95-0.516-6.354,0.687  c-2.403,1.202-2.919,2.748-2.919,2.748s0.688,0.687,2.576,0c1.888-0.687,6.01-1.717,11.16-1.545c0,0-8.854,2.336-12.019,3.263  c-7.041,2.061-9.96,1.374-12.707-0.859c-1.856-1.508-12.535,4.121-15.369,7.212c0,0-4.871,6.943,2.061,5.924  c8.758-1.288,11.075-6.697,12.878-7.469c0,0,0,0,0.772,0.515s-3.262,2.747-5.838,6.869c0,0,3.263,1.803,6.354,1.545  c3.091-0.257,5.666-8.414,13.393-10.217l2.404,0.086c0,0-4.121,1.373-7.212,3.949c-3.091,2.575-4.463,4.464-3.434,5.495  s6.01,0.43,7.039-0.344c1.031-0.772,3.793-3.984,7.899-6.353c4.464-2.576,10.989-6.869,10.046-7.727c0,0,0.943,2.576-1.632,4.121  s-5.581,2.576-5.581,3.864c0,1.288,10.303-3.606,13.136-4.379c2.834-0.772,5.667-2.061,6.955-4.378c0,0-1.546,3.606-6.439,5.666  c-4.894,2.061,0.772,2.061,1.545,1.803c0.773-0.257,9.016-7.727,14.166-8.5c0,0-7.727,4.894-11.332,8.5  c-3.606,3.605,3.605,1.803,4.636,1.288c0,0-4.379,3.09-8.242,1.288s-5.151-1.545-7.727-0.773c-2.575,0.773-5.151,1.803-7.985,2.319  c-1.604,0.292-0.035,2.731,1.203,4.292c0.946,1.193,1.527,2.343,3.091,2.232c3.605-0.258,7.297-4.464,10.387-4.464  c3.092,0,6.183-0.515,8.501-0.257c2.318,0.257,1.287,1.03,1.287,1.03s-7.125-0.429-9.701,0.601c-2.575,1.03,1.03,3.177,3.606,2.919  l0.172,1.116c0,0-4.122,1.03-4.895-1.03s-3.863-0.772-5.666,0.258c-1.803,1.03-3.005,4.464,2.489,6.182  c4.904,1.533,6.955-2.747,11.333-2.747l0.602,1.202c0,0-3.006,0.343-5.237,2.575c-2.127,2.127-6.248,1-8.757-0.171  c-2.577-1.202-4.294-4.464-6.612-3.434c-2.317,1.03,0.173,7.04,1.461,7.555l-1.976,0.687c0,0-3.004-5.323-1.975-8.929  c1.03-3.605-2.146-6.268-3.948-5.752c-1.804,0.515-3.864,2.833-2.318,5.667c1.544,2.833,4.722,11.076,5.751,14.167l-0.601,1.029  c0,0-5.408-13.05-7.983-13.565c-2.576-0.515-1.89,7.212,1.544,11.333c1.924,2.308-1.029,1.203-1.029,1.203  s-3.606-5.925-4.121-11.076s-9.53-2.575-9.272,2.061c0.257,4.636,1.287,10.303,4.636,14.165c3.349,3.865,3.606,8.243,3.606,8.243  s5.951-3.294,12.377-4.479c5.962-1.101,12.375-0.833,20.877-5.225c8.5-4.393,7.843-5.296,8.977-7.825  c1.134-2.53,5.335-13.256,3.525-19.384c0,0,0.889,2.854,1.392,1.726l0.964-6.556c0,0-0.192,3.668-0.645,7.935  c-0.318,3.002-0.765,6.301-1.362,8.825c0,0,6.977-7.429,8.137-9.34l0.965-6.556l0.93-0.039l-1.113,6.717c0,0,3.045-1.37,4.602-3.064  c1.558-1.694,0.64,0.438,0.64,0.438s-2.009,2.023-4.366,3.131c0,0-8.547,8.815-9.19,10.16c-0.64,1.346-4.407,9.495-4.407,9.495  s7.468-1.324,8.593-2.226c1.125-0.899,3.937-4.121,4.362-5.07s-0.008-3.878-0.008-3.878l0.363,4.949c0,0,5.145-1.226,6.029-2.348  c0.883-1.123,4.071-4.593,4.071-4.593l0.491,0.6l-4.383,4.606c0,0,4.336-0.183,5.307-1.077c0.971-0.895,0.417,0.68,0.417,0.68  l-6.236,1.117l-4.902,1.447l-4.475,4.223c0,0,6.229,2.451,13.634-2.205c7.405-4.656,0.727,0.667,0.727,0.667l-6.028,2.349  c0,0,2.583,2.373,4.01,3.089c1.426,0.715-1.736-0.703-2.611-1.208c-0.875-0.507-0.894-0.972-1.904-1.006  c-1.01-0.035-7.507,0.394-9.391-0.147c-1.885-0.541-8.915,1.928-9.913,2.202c-0.996,0.275-11.444,6.301-10.794,7.049  c0.652,0.747,6.709,2.741,7.731,3.087c1.022,0.343,1.022,0.343,2.706-0.192c1.685-0.536,4.032-0.017,5.022-0.444  c0.991-0.431,1.976-1.015,3.329-2.003c1.354-0.987,3.551-1.852,4.024-3.891c0.503-2.168,0.029-2.95,0.55-3.515  c0,0-0.146,3.884,0.985,3.137c1.132-0.744,5.747-3.498,6.683-3.384c0.935,0.116,3.518,2.489,6.353,1.672  c0,0-2.189,1.411-5.695-0.769c0,0,6.444,5.624,10.9,4.66c0,0-4.878,2.056-11.104-2.17c-2.475-1.68-6.625,1.056-7.3,1.628  c0,0-4.333,3.905-5.774,4.664c-1.442,0.759,6.675,1.967,8.601,1.654c1.927-0.315,4.21-1.341,5.477-2.56  c1.268-1.216,2.053,0.846,4.479-0.497c0,0-0.652,1.088-3.032,1.084c-2.378-0.005-4.773,3.251-6.121,3.205  c-1.346-0.047,4.952,2.169,14.688-1.188c0,0-4.639,1.592-5.723,2.878c-1.083,1.286,3.695,2.998,5.513,3.181  c0,0-3.959-0.66-6.919-2.189c-2.96-1.531-5.622-0.9-7.779-1.792c-2.157-0.891-9.051-1.272-10.526-1.935  c-1.477-0.662-5.285,0.997-8.712,0.626c0,0,4.177,4.632,7.075,5.906c2.896,1.272,6.813,2.194,8.708,1.753  c1.895-0.442,4.445-1.274,6.312-1.146c0,0-4.019,1.565-5.559,1.839c-1.54,0.271,4.975,5.168,5.806,5.236  c0.83,0.067,5.053,0.873,6.411,1.228c0,0-5.973-0.626-6.852-0.64c-0.807-0.015,3.859,4.168,5.187,5.364  c0.121,0.108,0.213,0.192,0.271,0.247c0.699,0.643-10.444-9.798-12.444-10.644c-2.001-0.847-7.07-2.131-7.842-2.047  c-0.772,0.082-0.011,0.981,0.585,1.63c0.597,0.646,3.382,5.389,4.624,6.629c1.241,1.24,4.193,5.046,5.381,6.235  c0,0-4.282-4.395-6.997-6.528c-0.748-0.59-0.498,0.434-0.538,0.694c0,0-0.109,4.763,0.054,6.202l-0.792-1.62  c0,0,0.06-4.708-0.328-6.553c-0.388-1.847-3.219-6.433-4.671-7.767c-1.453-1.335-4.909-4.81-6.595-5.565  c-1.688-0.755-6.581-2.772-7.672-2.883c-1.09-0.108-15.938,0.934-16.218,1.668c0,0-8.055,2.18-9.601,6.816  c-1.545,4.636,5.152,15.453,5.925,29.361c0.771,13.898,6.954,35.546,10.302,40.696c0,0,4.916,4.01,11.097,3.624  c0,0-17.392,3.391-21.634,0.386c-2.512-1.778-3.543-2.121-5.26-1.605c-3.412,1.023-0.687,2.575-2.576,3.262  c-3.575,1.3-8.777-0.11-8.777-0.11s3.864-1.158,4.25-3.477s-3.499-0.19-5.432,1.354c-1.932,1.546-1.521,1.349-4.999,2.895  c-3.477,1.545-5.022,0.387-10.044-0.386c-5.022-0.772-5.795,0-7.727,1.158c0,0,3.043-4.285,13.498-3.494  c0,0,5.924-5.409,4.636-19.574c-1.288-14.167-0.725-21.71-1.03-23.696c-0.515-3.35-1.107-11.855-4.121-16.227  c-5.152-7.47-7.728-15.97-12.364-21.379c-4.636-5.408-10.56-10.045-21.12-13.908C52.257,96.858,52,98.146,48.909,99.176  c-3.091,1.03-15.711,5.924-19.575,12.363"
   id="path3" />
<path
   fill="#5AAD0B"
   stroke="#000000"
   d="M64.621,16.755c0,0,0.772,3.091-2.576,3.863c0,0-2.833,4.122-4.121,1.804  c-1.288-2.318-2.318-13.651-2.318-13.651S64.105,14.18,64.621,16.755z"
   id="path5" />
<path
   fill="#5AAD0B"
   stroke="#000000"
   d="M79.848,15.531c0,0-0.874,3.063-4.162,2.061c0,0-4.512,2.156-4.471-0.496  c0.042-2.651,4.809-12.985,4.809-12.985S80.687,13.042,79.848,15.531z"
   id="path7" />
<path
   fill="#5AAD0B"
   stroke="#000000"
   d="M58.075,31.728c0,0,3.183,0.14,2.97,3.569c0,0,3.144,3.89,0.555,4.464  c-2.589,0.574-13.746-1.667-13.746-1.667S55.459,31.488,58.075,31.728z"
   id="path9" />
<path
   fill="#5AAD0B"
   stroke="#000000"
   d="M49.06,42.288c0,0,3.183,0.14,2.97,3.57c0,0,3.144,3.889,0.555,4.464  c-2.589,0.574-13.746-1.667-13.746-1.667S46.444,42.048,49.06,42.288z"
   id="path11" />
<path
   fill="#5AAD0B"
   stroke="#000000"
   d="M107.785,71.393c0,0,3.184,0.14,2.97,3.569c0,0,3.144,3.89,0.555,4.464  C108.72,80,97.564,77.76,97.564,77.76S105.169,71.153,107.785,71.393z"
   id="path13" />
<path
   fill="#5AAD0B"
   stroke="#000000"
   d="M128.339,94.809c0,0,0.321-3.169,3.733-2.76c0,0,4.063-2.916,4.489-0.298  c0.425,2.618-2.452,13.627-2.452,13.627S127.949,97.407,128.339,94.809z"
   id="path15" />
<path
   fill="#5AAD0B"
   stroke="#000000"
   d="M117.006,102.793c0,0,0.321-3.169,3.733-2.76c0,0,4.064-2.916,4.489-0.298  c0.424,2.618-2.452,13.629-2.452,13.629S116.617,105.39,117.006,102.793z"
   id="path17" />
<path
   fill="#5AAD0B"
   stroke="#000000"
   d="M126.932,70.189c0,0-2.161-2.34,0.406-4.625c0,0,0.505-4.976,2.748-3.561  c2.243,1.415,8.588,10.861,8.588,10.861S128.62,72.202,126.932,70.189z"
   id="path19" />
<path
   fill="#5AAD0B"
   stroke="#000000"
   d="M148.979,33.57c0,0-3.134-0.569-3.687,2.822c0,0-3.928,3.097-1.53,4.23  s13.772,1.422,13.772,1.422S151.583,33.917,148.979,33.57z"
   id="path21" />
<path
   fill="#5AAD0B"
   stroke="#000000"
   d="M152.327,47.222c0,0-3.135-0.57-3.687,2.822c0,0-3.928,3.096-1.53,4.23  c2.398,1.134,13.772,1.422,13.772,1.422S154.932,47.568,152.327,47.222z"
   id="path23" />
<path
   fill="#5AAD0B"
   stroke="#000000"
   d="M129.146,34.085c0,0-3.135-0.569-3.687,2.823c0,0-3.928,3.096-1.53,4.23  c2.396,1.134,13.773,1.422,13.773,1.422S131.751,34.432,129.146,34.085z"
   id="path25" />
<path
   fill="#5AAD0B"
   stroke="#000000"
   d="M126.57,13.48c0,0-3.135-0.569-3.687,2.822c0,0-3.928,3.096-1.53,4.23  s13.773,1.422,13.773,1.422S129.174,13.827,126.57,13.48z"
   id="path27" />
<path
   fill="#5AAD0B"
   stroke="#000000"
   d="M20.985,83.241c0,0,3.183,0.14,2.97,3.57c0,0,3.144,3.889,0.554,4.464  c-2.588,0.574-13.745-1.667-13.745-1.667S18.37,83.001,20.985,83.241z"
   id="path29" />
<path
   fill="#5AAD0B"
   stroke="#000000"
   d="M18.152,101.013c0,0,3.183,0.14,2.97,3.569c0,0,3.144,3.889,0.555,4.465  c-2.589,0.574-13.746-1.668-13.746-1.668S15.537,100.773,18.152,101.013z"
   id="path31" />
<path
   fill="#5AAD0B"
   stroke="#000000"
   d="M19.698,94.831c0,0,3.183,0.14,2.97,3.57c0,0,3.144,3.889,0.554,4.463  c-2.589,0.575-13.745-1.667-13.745-1.667S17.082,94.591,19.698,94.831z"
   id="path33" />
<path
   fill="#5AAD0B"
   stroke="#000000"
   d="M39.53,54.651c0,0,3.183,0.14,2.97,3.569c0,0,3.144,3.89,0.555,4.464  c-2.589,0.574-13.746-1.667-13.746-1.667S36.915,54.411,39.53,54.651z"
   id="path35" />
<path
   fill="#5AAD0B"
   stroke="#000000"
   d="M27.424,72.166c0,0,3.183,0.14,2.97,3.569c0,0,3.143,3.89,0.554,4.463  c-2.589,0.575-13.745-1.666-13.745-1.666S24.809,71.925,27.424,72.166z"
   id="path37" />
<path
   fill="#5AAD0B"
   stroke="#000000"
   d="M35.667,87.877c0,0,3.183,0.14,2.97,3.569c0,0,3.143,3.89,0.554,4.464  s-13.746-1.666-13.746-1.666S33.051,87.637,35.667,87.877z"
   id="path39" />
<path
   fill="#5AAD0B"
   stroke="#000000"
   d="M186.54,88.082c0,0-3.065-0.87-3.943,2.452c0,0-4.208,2.702-1.933,4.062  c2.276,1.36,13.57,2.75,13.57,2.75S189.099,88.679,186.54,88.082z"
   id="path41" />
<path
   fill="#5AAD0B"
   stroke="#000000"
   d="M165.161,50.735c0,0-3.064-0.87-3.941,2.451c0,0-4.21,2.702-1.933,4.062  c2.275,1.361,13.57,2.75,13.57,2.75S167.72,51.332,165.161,50.735z"
   id="path43" />
<path
   fill="#5AAD0B"
   stroke="#000000"
   d="M179.157,72.266c0,0-2.665-1.747-4.496,1.16c0,0-4.825,1.318-3.059,3.297  c1.765,1.98,12.126,6.683,12.126,6.683S181.42,73.601,179.157,72.266z"
   id="path45" />
<path
   fill="#5AAD0B"
   stroke="#000000"
   d="M186.024,102.248c0,0-3.064-0.87-3.942,2.451c0,0-4.209,2.702-1.934,4.062  c2.276,1.36,13.571,2.75,13.571,2.75S188.584,102.845,186.024,102.248z"
   id="path47" />
<path
   fill="#5AAD0B"
   stroke="#000000"
   d="M82.971,25.981c0,0,1.479,2.821-1.592,4.362c0,0-1.782,4.673-3.581,2.724  c-1.798-1.949-5.471-12.72-5.471-12.72S81.863,23.6,82.971,25.981z"
   id="path49" />
<path
   fill="#5AAD0B"
   stroke="#000000"
   d="M90.751,29.688c0,0,0.367,3.165-3.053,3.499c0,0-3.34,3.722-4.319,1.257  S82.84,20.607,82.84,20.607S90.571,27.067,90.751,29.688z"
   id="path51" />
<path
   fill="#5AAD0B"
   stroke="#000000"
   d="M86.752,45.576c0,0,0.147-3.183,3.577-2.961c0,0,3.897-3.134,4.465-0.543  c0.568,2.59-1.699,13.742-1.699,13.742S86.506,48.191,86.752,45.576z"
   id="path53" />
<path
   fill="#5AAD0B"
   stroke="#000000"
   d="M68.722,55.621c0,0,0.147-3.183,3.577-2.961c0,0,3.897-3.134,4.465-0.544  c0.568,2.59-1.699,13.742-1.699,13.742S68.477,58.236,68.722,55.621z"
   id="path55" />
<path
   fill="#5AAD0B"
   stroke="#000000"
   d="M28.105,69.301c0,0,2.289,0.123,2.163,2.501c0,0,2.291,2.725,0.435,3.103  c-1.856,0.378-9.894-1.267-9.894-1.267S26.223,69.113,28.105,69.301z"
   id="path57" />
<path
   fill="#5AAD0B"
   stroke="#000000"
   d="M35.574,69.301c0,0,2.289,0.123,2.163,2.501c0,0,2.291,2.725,0.435,3.103  c-1.856,0.378-9.894-1.267-9.894-1.267S33.692,69.113,35.574,69.301z"
   id="path59" />
<path
   fill="#5AAD0B"
   stroke="#000000"
   d="M23.983,100.208c0,0,2.289,0.122,2.164,2.503c0,0,2.291,2.726,0.434,3.103  c-1.856,0.377-9.894-1.267-9.894-1.267S22.102,100.021,23.983,100.208z"
   id="path61" />
<path
   fill="#5AAD0B"
   stroke="#000000"
   d="M43.816,51.787c0,0,2.289,0.122,2.164,2.501c0,0,2.291,2.726,0.434,3.104  c-1.856,0.378-9.893-1.267-9.893-1.267S41.935,51.599,43.816,51.787z"
   id="path63" />
<path
   fill="#5AAD0B"
   stroke="#000000"
   d="M44.589,59.256c0,0,2.289,0.123,2.164,2.501c0,0,2.29,2.725,0.434,3.103  c-1.856,0.378-9.893-1.267-9.893-1.267S42.707,59.068,44.589,59.256z"
   id="path65" />
<path
   fill="#5AAD0B"
   stroke="#000000"
   d="M57.21,49.983c0,0,2.289,0.123,2.163,2.502c0,0,2.291,2.726,0.434,3.103  c-1.856,0.378-9.893-1.267-9.893-1.267S55.328,49.796,57.21,49.983z"
   id="path67" />
<path
   fill="#5AAD0B"
   stroke="#000000"
   d="M55.922,61.574c0,0,2.289,0.122,2.164,2.501c0,0,2.29,2.725,0.434,3.104  c-1.856,0.377-9.894-1.267-9.894-1.267S54.04,61.386,55.922,61.574z"
   id="path69" />
<path
   fill="#5AAD0B"
   stroke="#000000"
   d="M57.982,52.816c0,0,2.289,0.123,2.163,2.502c0,0,2.291,2.725,0.435,3.103  c-1.856,0.378-9.894-1.267-9.894-1.267S56.101,52.629,57.982,52.816z"
   id="path71" />
<path
   fill="#5AAD0B"
   stroke="#000000"
   d="M161.523,75.998c0,0,2.289,0.122,2.164,2.502c0,0,2.289,2.725,0.433,3.103  c-1.855,0.378-9.892-1.266-9.892-1.266S159.642,75.81,161.523,75.998z"
   id="path73" />
<path
   fill="#5AAD0B"
   stroke="#000000"
   d="M171.568,87.845c0,0,2.289,0.123,2.164,2.502c0,0,2.289,2.726,0.433,3.104  c-1.855,0.377-9.892-1.267-9.892-1.267S169.687,87.658,171.568,87.845z"
   id="path75" />
<path
   fill="#5AAD0B"
   stroke="#000000"
   d="M171.568,91.709c0,0,2.289,0.123,2.164,2.501c0,0,2.289,2.725,0.433,3.104  c-1.855,0.378-9.892-1.267-9.892-1.267S169.687,91.521,171.568,91.709z"
   id="path77" />
<path
   fill="#5AAD0B"
   stroke="#000000"
   d="M170.539,72.134c0,0,2.288,0.123,2.162,2.501c0,0,2.291,2.726,0.434,3.104  c-1.855,0.378-9.892-1.267-9.892-1.267S168.656,71.947,170.539,72.134z"
   id="path79" />
<path
   fill="#5AAD0B"
   stroke="#000000"
   d="M67.896,49.288c0,0,1.678-1.561,3.301,0.183c0,0,3.553,0.248,2.534,1.845  c-1.019,1.597-7.787,6.232-7.787,6.232S66.453,50.511,67.896,49.288z"
   id="path81" />
<path
   fill="#5AAD0B"
   stroke="#000000"
   d="M80.977,61.136c0,0-1.679-1.561-3.302,0.184c0,0-3.552,0.247-2.534,1.844  c1.019,1.598,7.787,6.233,7.787,6.233S82.42,62.359,80.977,61.136z"
   id="path83" />
<path
   fill="#5AAD0B"
   stroke="#000000"
   d="M113.688,52.894c0,0-1.679-1.56-3.301,0.184c0,0-3.553,0.247-2.534,1.844  c1.019,1.598,7.787,6.233,7.787,6.233S115.131,54.117,113.688,52.894z"
   id="path85" />
<path
   fill="#5AAD0B"
   stroke="#000000"
   d="M184.776,101.832c0,0-1.679-1.561-3.303,0.182c0,0-3.551,0.248-2.532,1.846  c1.019,1.597,7.786,6.233,7.786,6.233S186.219,103.054,184.776,101.832z"
   id="path87" />
<path
   fill="#5AAD0B"
   stroke="#000000"
   d="M111.448,19.625c0,0,1.048-2.039-1.072-3.129c0,0-1.2-3.351-2.462-1.938  c-1.261,1.413-3.889,9.185-3.889,9.185S110.661,21.345,111.448,19.625z"
   id="path89" />
<path
   fill="#5AAD0B"
   stroke="#000000"
   d="M124.248,16.062c0,0-1.68-1.561-3.302,0.183c0,0-3.552,0.248-2.533,1.844  c1.019,1.598,7.786,6.233,7.786,6.233S125.69,17.285,124.248,16.062z"
   id="path91" />
<path
   fill="#5AAD0B"
   stroke="#000000"
   d="M96.431,37.698c0,0-1.679-1.561-3.301,0.183c0,0-3.551,0.248-2.533,1.845  c1.018,1.597,7.786,6.233,7.786,6.233S97.874,38.92,96.431,37.698z"
   id="path93" />
<path
   fill="#5AAD0B"
   stroke="#000000"
   d="M126.309,22.759c0,0-1.679-1.561-3.302,0.184c0,0-3.552,0.248-2.533,1.845  c1.018,1.597,7.787,6.232,7.787,6.232S127.752,23.982,126.309,22.759z"
   id="path95" />
<path
   fill="#5AAD0B"
   stroke="#000000"
   d="M162.625,63.712c0,0-1.679-1.561-3.302,0.183c0,0-3.552,0.248-2.533,1.845  s7.787,6.233,7.787,6.233S164.068,64.935,162.625,63.712z"
   id="path97" />
<path
   fill="#5AAD0B"
   stroke="#000000"
   d="M188.896,112.906c0,0-1.678-1.56-3.301,0.185c0,0-3.552,0.247-2.534,1.845  c1.019,1.598,7.787,6.231,7.787,6.231S190.34,114.131,188.896,112.906z"
   id="path99" />
<path
   fill="#5AAD0B"
   stroke="#000000"
   d="M166.231,134.801c0,0-1.679-1.562-3.302,0.183c0,0-3.552,0.246-2.533,1.844  c1.018,1.598,7.786,6.234,7.786,6.234S167.674,136.022,166.231,134.801z"
   id="path101" />
<path
   fill="#5AAD0B"
   stroke="#000000"
   d="M177.564,120.633c0,0-1.679-1.56-3.303,0.185c0,0-3.551,0.247-2.533,1.845  c1.02,1.598,7.787,6.231,7.787,6.231S179.006,121.857,177.564,120.633z"
   id="path103" />
<path
   fill="#5AAD0B"
   stroke="#000000"
   d="M172.413,133.512c0,0-1.679-1.56-3.302,0.183c0,0-3.552,0.249-2.533,1.847  c1.018,1.596,7.786,6.231,7.786,6.231S173.855,134.734,172.413,133.512z"
   id="path105" />
<path
   fill="#5AAD0B"
   stroke="#000000"
   d="M151.55,83.802c0,0-1.678-1.561-3.303,0.183c0,0-3.551,0.248-2.531,1.845  c1.018,1.597,7.787,6.232,7.787,6.232S152.993,85.025,151.55,83.802z"
   id="path107" />
<path
   fill="#5AAD0B"
   stroke="#000000"
   d="M152.838,65.772c0,0-1.679-1.561-3.302,0.183c0,0-3.552,0.248-2.533,1.845  c1.018,1.597,7.787,6.232,7.787,6.232S154.281,66.995,152.838,65.772z"
   id="path109" />
<path
   fill="#5AAD0B"
   stroke="#000000"
   d="M165.716,43.364c0,0-1.679-1.561-3.302,0.183c0,0-3.551,0.248-2.532,1.845  c1.018,1.597,7.786,6.233,7.786,6.233S167.158,44.587,165.716,43.364z"
   id="path111" />
<path
   fill="#5AAD0B"
   stroke="#000000"
   d="M62.104,22.424c0,0,2.289,0.122,2.163,2.501c0,0,2.29,2.726,0.434,3.104  c-1.856,0.377-9.893-1.267-9.893-1.267S60.222,22.236,62.104,22.424z"
   id="path113" />
</svg>