<?xml version="1.0" encoding="UTF-8" standalone="no"?>
<!-- Generator: Adobe Illustrator 14.0.0, SVG Export Plug-In . SVG Version: 6.00 Build 43363)  -->
<svg
   xmlns:dc="http://purl.org/dc/elements/1.1/"
   xmlns:cc="http://creativecommons.org/ns#"
   xmlns:rdf="http://www.w3.org/1999/02/22-rdf-syntax-ns#"
   xmlns:svg="http://www.w3.org/2000/svg"
   xmlns="http://www.w3.org/2000/svg"
   xmlns:sodipodi="http://sodipodi.sourceforge.net/DTD/sodipodi-0.dtd"
   xmlns:inkscape="http://www.inkscape.org/namespaces/inkscape"
   version="1.1"
   id="Layer_1"
   x="0px"
   y="0px"
   width="64px"
   height="79.75px"
   viewBox="0 0 64 79.75"
   enable-background="new 0 0 64 79.75"
   xml:space="preserve"
   sodipodi:version="0.32"
   inkscape:version="0.46"
   sodipodi:docname="dog_t_64.svg"
   inkscape:output_extension="org.inkscape.output.svg.inkscape"><metadata
   id="metadata2661"><rdf:RDF><cc:Work
       rdf:about=""><dc:format>image/svg+xml</dc:format><dc:type
         rdf:resource="http://purl.org/dc/dcmitype/StillImage" /></cc:Work></rdf:RDF></metadata><defs
   id="defs2659"><inkscape:perspective
     sodipodi:type="inkscape:persp3d"
     inkscape:vp_x="0 : 39.875 : 1"
     inkscape:vp_y="0 : 1000 : 0"
     inkscape:vp_z="64 : 39.875 : 1"
     inkscape:persp3d-origin="32 : 26.583333 : 1"
     id="perspective2663" /></defs><sodipodi:namedview
   inkscape:window-height="726"
   inkscape:window-width="641"
   inkscape:pageshadow="2"
   inkscape:pageopacity="0.0"
   guidetolerance="10.0"
   gridtolerance="10.0"
   objecttolerance="10.0"
   borderopacity="1.0"
   bordercolor="#666666"
   pagecolor="#ffffff"
   id="base"
   showgrid="false"
   inkscape:zoom="6.1943574"
   inkscape:cx="32"
   inkscape:cy="31.507598"
   inkscape:window-x="0"
   inkscape:window-y="6"
   inkscape:current-layer="Layer_1" />
<path
   fill="#8B4F9F"
   d="M39.403,42.444l1.465,2.531c0.252,0.363-0.918,1.609-2.613,2.781c-1.693,1.172-3.271,1.829-3.521,1.466  l-1.467-2.531c-0.203-0.295,0.525-1.169,1.713-2.114l2.197-1.481C38.315,42.461,39.218,42.177,39.403,42.444z"
   id="path2545" />
<radialGradient
   id="SVGID_1_"
   cx="33.9199"
   cy="37.2158"
   r="35.4778"
   gradientUnits="userSpaceOnUse">
	<stop
   offset="0"
   style="stop-color:#F7C94B"
   id="stop2548" />
	<stop
   offset="1"
   style="stop-color:#9C5A2E"
   id="stop2550" />
</radialGradient>
<path
   fill="url(#SVGID_1_)"
   d="M14.16,57.66c0.002,2.484,0.158,5.471,0.605,7.412c0.8,3.465,2.666,7.061,2.532,8.26  c-0.133,1.201-7.059,0.256-8.794-0.266c-1.333-0.398-2.202-0.295-2.665,0c-0.102,0.064-0.209,0.221-0.304,0.439l-0.096-0.039  c0,0-1.666-0.066-2.332,0.998c0,0-1.066-0.6-1.732,0c-0.667,0.6-0.255,3.174,1,3.732c1.199,0.533,1.732,0.332,1.732,0.332  s0.308,0.232,0.466,0.268c1.266,0.266,3.731,0,3.731,0s0.683-0.01,1,0c2.002,0.051,3.765-0.604,5.596-0.934  c1.832-0.33,3.731-0.332,5.73-1.465c0,0,2.398-0.666,2.132-1.6c-0.166-0.58-1.159-1.266-1.949-2.182l0.083,0.051  c0.531,0.529,3.695,1.867,7.638,2.346c-0.008,0.334,0.023,0.666,0.023,0.918c0,0.732,0.133,1.6,0.133,1.6s0.267,1.199,2.065,1.266  l-0.069-0.062c0.357,0.383,1.17,0.762,3,0.729c0,0,4.449,0.42,5.596,0.133c0.266-0.066,0.266-1.6,0.266-2.799  c0-0.33-0.205-4.18-0.205-4.18c1.551-1.389,2.783-3.264,3.688-5.279l0.121-0.016l0.896,5.496c-0.752,0.816-1.615,1.443-1.768,1.98  c-0.266,0.934,2.32,1.674,2.32,1.674c0.275,1.166,0.627,2.658,0.902,2.662c1.621,0.021,6.617-0.299,7.305-0.871  c0,0,0.85,0.582,2.932,0.533c0.252-0.006,0.49-0.025,0.717-0.055l0.281,0.055c0,0,2.467,0.266,3.73,0  c0.191-0.041,0.373-0.143,0.545-0.293c0,0,0.455,0.227,1.654-0.307c1.254-0.559,1.666-3.133,1-3.732s-1.732,0-1.732,0  c-0.666-1.064-2.332-0.998-2.332-0.998l-0.125-0.025c-0.088-0.186-0.184-0.316-0.275-0.375c-0.463-0.295-1.332-0.398-2.664,0  c-0.297,0.09-0.865,0.244-1.406,0.346c-0.492-1.111-1.186-1.926-1.979-1.873c-0.332,0.021-1.162,0.445-1.162,0.445l0,0  c-0.648-0.088-1.58,0.244-2.164,0.494l-1.379,0.652l-0.385-1.137l0,0c0.506-1.68,1.613-4.324,2.213-6.922  c0.799-3.465,0.666-10.26,0.398-11.592c-0.268-1.334,0.133-4.398-4.131-4.665c-1.447-0.091-2.789,1.371-3.928,3.343l0.049-0.026  c-2.684-5.268-6.848-10.778-6.846-10.778l0.002-0.034c0.502,0.033,1.033,0.045,1.596,0.034c3.492-0.072,5.914-1.935,7.562-4.156  l0.033,0.025c0.666,0,6.262-1.599,5.996-9.327c-0.268-7.728-8.262-7.195-10.527-4.53c-1.713,2.016-4.529,0.933-4.529,0.933  c0.182-3.834-0.107-6.362-1.035-7.914l0.051-0.029c0.498-0.74,1.783-1.188,2.184-2.451c0.799-2.531,0.533-5.996,0.533-5.996  l-0.039,0.098c1.422,0.566,2.906,0.896,3.635,0.834c1.6-0.133,1.066-1.999-4.795-6.529c-5.863-4.531-7.862,12.125-7.862,12.125  c-0.733,0.083-1.354,0.212-1.882,0.386l0,0c0,0-1.45-11.978-7.312-7.448c-5.863,4.53-6.396,6.396-4.797,6.529  c0.684,0.057,2.028-0.228,3.361-0.729l0.236-0.204c0,0-2.541,3.215,0.533,5.997c2.798,2.531,3.331,4.53,3.331,5.596  c-3.62,10.619,0.267,15.456,0.267,15.456s1.216,7.111,3.331,8.661c4.085,2.994,6.081-2.681,8.253-5.671l0.141-0.124  c0,0,2.768,4.35,1.4,7.996c-1.158,3.087-6.202,5.579-11.243,5.396c0,0-2.931-7.646-5.746-7.462c-3.239,0.212-3.787,2.021-3.98,3.467  l-0.018-0.002c0,0-3.598-2.199-2.998-12.592c0.6-10.393,0.8-13.391-1.599-12.991c-2.398,0.399-2.398,2.198-1.199,4.197  c0,0-1.199-1-2.398,0.599c-1.199,1.599,1.799,3.598,2.598,4.397c0,0-2.598-0.8-2.998,2.398c-0.399,3.198,2.199,4.797,2.998,5.197  c0.8,0.4-1.999,4.596-0.2,8.994s4.78,4.88,5.38,5.081"
   id="path2552" />
<path
   fill="none"
   stroke="#000000"
   stroke-width="0.5"
   d="M26.108,61.758c0,0-3.331-13.192-7.595-12.927  c-4.264,0.267-3.864,3.332-4.131,4.665c-0.266,1.332-0.399,8.127,0.4,11.592c0.8,3.465,2.665,7.062,2.532,8.262  s-7.059,0.254-8.794-0.268c-1.333-0.398-2.201-0.295-2.665,0c-0.733,0.467-1.732,5.596,3.464,5.73  c2.003,0.051,3.766-0.604,5.597-0.932c1.832-0.33,3.731-0.334,5.729-1.467c0,0,2.398-0.668,2.132-1.6s-2.665-2.131-2.931-4.131  c-0.267-1.998,2.798-6.662,2.265-9.061c-0.533-2.398-1.199-4.797-2.931-5.863"
   id="path2554" />
<g
   id="g2556">
	<line
   fill="none"
   stroke="#000000"
   stroke-width="0.5"
   x1="35.569"
   y1="59.092"
   x2="34.835"
   y2="73.016"
   id="line2558" />
	<path
   fill="none"
   stroke="#000000"
   stroke-width="0.5"
   d="M35.437,73.082c0,0-2.133-0.666-2.799,0.268   c-0.666,0.932-1.066,5.328-0.267,5.73c0.8,0.398,5.357,0.924,6.929,0.531c0.268-0.066,0.268-1.598,0.268-2.797   s-1.732-19.588-1.732-19.588"
   id="path2560" />
	<path
   fill="none"
   stroke="#000000"
   stroke-width="0.5"
   d="M33.036,73.082c0,0-2.331-0.531-2.598,0.467   c-0.266,1-0.2,1.799-0.2,1.799l0.2,2.666c0,0-0.333,1.531,3.266,1.465"
   id="path2562" />
	<path
   fill="none"
   stroke="#000000"
   stroke-width="0.5"
   d="M30.372,73.748c0,0-0.538-0.188-0.866-0.133   c-1.2,0.201-0.933,1.6-0.933,2.332s0.133,1.6,0.133,1.6s0.266,1.199,2.065,1.266"
   id="path2564" />
</g>
<g
   id="g2566">
	<path
   fill="none"
   stroke="#000000"
   stroke-width="0.5"
   d="M43.497,58.359l4.967,14.787c0,0,1.922-1.137,2.785-0.383   c0.863,0.756,2.262,4.943,1.574,5.516c-0.686,0.572-5.684,0.893-7.303,0.871c-0.275-0.004-0.627-1.496-0.902-2.662   c-0.275-1.168-3.053-18.996-3.053-18.996"
   id="path2568" />
	<path
   fill="none"
   stroke="#000000"
   stroke-width="0.5"
   d="M49.294,72.75c0,0,2.279-1.189,3.131-0.6   c0.865,0.6,1.932,4.529,1.932,4.529s0.428,1.283-3.088,2.045"
   id="path2570" />
	<path
   fill="none"
   stroke="#000000"
   stroke-width="0.5"
   d="M52.024,71.951c0,0,0.812-0.373,1.145-0.395   c1.215-0.082,2.188,1.859,2.586,3.791c0.186,0.891,0.129,1.648-1.605,2.127"
   id="path2572" />
</g>
<path
   fill="none"
   stroke="#000000"
   stroke-width="0.5"
   d="M5.455,73.482c0,0-1.665-0.066-2.331,1  c-0.667,1.066,0.199,4.064,1.465,4.33c1.266,0.268,3.869-0.115,3.869-0.115"
   id="path2574" />
<path
   fill="none"
   stroke="#000000"
   stroke-width="0.5"
   d="M3.124,74.482c0,0-1.281-0.791-1.75-0.027  c-0.316,0.515-0.316,3.265,1,3.73c1.237,0.438,1.749,0.361,1.749,0.361"
   id="path2576" />
<path
   fill="none"
   stroke="#000000"
   stroke-width="0.5"
   d="M44.657,56.93c0.316-0.412,0.805-0.902,1.238-1.17"
   id="path2578" />
<path
   fill="none"
   stroke="#000000"
   stroke-width="0.5"
   d="M44.601,76.473c0,0-2.57-0.727-2.303-1.658  c0.154-0.537,0.924-1.113,1.678-1.93"
   id="path2580" />
<path
   fill="none"
   stroke="#000000"
   stroke-width="0.5"
   d="M55.144,73.318c0.541-0.102,1.115-0.146,1.41-0.236  c1.334-0.398,2.203-0.295,2.666,0c0.732,0.467,1.732,5.596-3.465,5.73c-1,0.025-2.027-0.35-2.947-0.549"
   id="path2582" />
<path
   fill="none"
   stroke="#000000"
   stroke-width="0.5"
   d="M42.632,52.175c1.141-1.972,2.48-3.434,3.93-3.344  c4.264,0.267,3.865,3.332,4.131,4.665c0.266,1.332,0.4,8.127-0.4,11.592c-0.6,2.6-1.723,5.227-2.229,6.906"
   id="path2584" />
<path
   fill="none"
   stroke="#000000"
   stroke-width="0.5"
   d="M59.478,73.441c0,0,1.809-0.025,2.475,1.041  c0.664,1.066-0.201,4.064-1.467,4.33c-1.266,0.268-4.029-0.07-4.029-0.07"
   id="path2586" />
<path
   fill="none"
   stroke="#000000"
   stroke-width="0.5"
   d="M61.952,74.482c0,0,1.064-0.6,1.732,0c0.664,0.6,0.256,3.172-1,3.73  c-1.199,0.533-1.732,0.334-1.732,0.334"
   id="path2588" />
<path
   fill="none"
   stroke="#000000"
   stroke-width="0.5"
   d="M28.533,75.014c-3.943-0.479-7.09-1.801-7.621-2.33"
   id="path2590" />
<path
   fill="none"
   stroke="#000000"
   stroke-width="0.5"
   d="M43.083,67.199c-0.904,2.016-2.271,4.068-3.824,5.457"
   id="path2592" />
<path
   fill="none"
   stroke="#000000"
   stroke-width="0.5"
   d="M35.835,41.37c0,0,8.861,11.726,9.061,17.321  c0.035,0.973-0.039,2.057-0.219,3.193"
   id="path2594" />
<path
   fill="none"
   stroke="#000000"
   stroke-width="0.5"
   d="M34.103,42.902c0,0,2.77,4.35,1.4,7.995  c-1.16,3.086-6.203,5.58-11.244,5.396"
   id="path2596" />
<path
   fill="none"
   stroke="#000000"
   stroke-width="0.5"
   d="M14.516,52.296c0,0-3.598-2.198-2.998-12.592  c0.6-10.393,0.799-13.391-1.599-12.991c-2.398,0.399-2.398,2.198-1.199,4.197c0,0-1.199-1-2.399,0.599  c-1.199,1.599,1.799,3.598,2.599,4.397c0,0-2.599-0.8-2.998,2.398c-0.4,3.198,2.199,4.797,2.998,5.197  c0.8,0.4-1.999,4.597-0.2,8.994c1.799,4.396,4.763,4.863,5.363,5.064"
   id="path2598" />
<ellipse
   transform="matrix(0.9215 -0.3884 0.3884 0.9215 -6.44 15.0119)"
   fill="#FFFFFF"
   stroke="#000000"
   cx="33.908"
   cy="23.434"
   rx="1.758"
   ry="4.372"
   id="ellipse2600" />
<ellipse
   transform="matrix(-0.9741 0.226 -0.226 -0.9741 72.2547 37.691)"
   cx="33.97"
   cy="22.982"
   rx="0.878"
   ry="2.184"
   id="ellipse2602" />
<ellipse
   transform="matrix(-0.9741 0.226 -0.226 -0.9741 71.6081 37.1768)"
   fill="#FFFFFF"
   cx="33.676"
   cy="22.688"
   rx="0.474"
   ry="1.181"
   id="ellipse2604" />
<ellipse
   transform="matrix(0.9741 0.2261 -0.2261 0.9741 6.7368 -5.9402)"
   fill="#FFFFFF"
   stroke="#000000"
   cx="29.306"
   cy="26.446"
   rx="2.731"
   ry="6.796"
   id="ellipse2606" />
<ellipse
   transform="matrix(0.9742 0.2258 -0.2258 0.9742 6.9502 -6.2747)"
   cx="30.905"
   cy="27.246"
   rx="1.194"
   ry="2.969"
   id="ellipse2608" />
<ellipse
   transform="matrix(0.9741 0.2259 -0.2259 0.9741 6.875 -6.3788)"
   fill="#FFFFFF"
   cx="31.305"
   cy="26.846"
   rx="0.645"
   ry="1.605"
   id="ellipse2610" />
<path
   fill="none"
   stroke="#000000"
   stroke-width="0.5"
   d="M48.228,29.644c0,0-2,11.546-10.793,11.726  c-6.529,0.133-8.928-2.932-9.728-4.664"
   id="path2612" />
<path
   fill="none"
   stroke="#000000"
   stroke-width="0.5"
   d="M27.041,36.439c0,0-4.297,9.666,0.799,10.394  c2.798,0.399,4.131-5.197,6.262-5.73"
   id="path2614" />
<path
   fill="none"
   stroke="#000000"
   stroke-width="0.5"
   d="M21.578,35.107c0,0,1.808,12.023,4.13,13.591  c5.33,3.598,6.929-6.263,10.126-7.328"
   id="path2616" />
<path
   fill="none"
   stroke="#000000"
   stroke-width="0.5"
   d="M22.377,40.037c0,0-3.887-4.837-0.267-15.456  c1.999-5.863,0.666-9.461,6.529-10.127c5.863-0.666,7.728,1.466,7.328,9.861c0,0,2.818,1.082,4.531-0.933  c2.266-2.665,10.26-3.198,10.527,4.53c0.266,7.729-5.332,9.327-5.998,9.327"
   id="path2618" />
<path
   fill="none"
   stroke="#000000"
   stroke-width="0.5"
   d="M24.642,35.24c0,0,2.932,2.665,5.863,0.667"
   id="path2620" />
<path
   fill="none"
   stroke="#000000"
   stroke-width="0.5"
   d="M26.741,14.824c0,0-1.433-11.962-7.295-7.432  c-5.863,4.53-6.396,6.396-4.797,6.529s6.795-1.599,7.062-3.598"
   id="path2622" />
<path
   fill="#FF9A7F"
   d="M34.075,15.398c0-0.033-0.338-3.754,0.838-5.519c1.066-1.599-0.533-3.198-1.865-1.732  c-1.333,1.466-1.865,3.731-1.732,6.129l0.008,0.055C33.659,14.621,34.075,15.398,34.075,15.398z"
   id="path2624" />
<path
   fill="none"
   stroke="#000000"
   stroke-width="0.5"
   d="M18.234,13.122c0,0-2.528,3.081,0.546,5.863  c2.798,2.532,3.331,4.53,3.331,5.597"
   id="path2626" />
<path
   fill="none"
   stroke="#000000"
   stroke-width="0.5"
   d="M28.64,14.454c0,0,1.999-16.656,7.861-12.125  c5.863,4.53,6.396,6.396,4.797,6.529s-6.795-1.599-7.062-3.598"
   id="path2628" />
<path
   fill="#FF9A7F"
   d="M25,15.917c0,0-1.333-1.599-1.333-3.598s-2.665,0-2.932,1.999c-0.266,1.999,2.132,4.13,2.666,4.397  l0.112,0.07c0.305-1.216,0.683-2.197,1.429-2.925L25,15.917z"
   id="path2630" />
<path
   fill="none"
   stroke="#000000"
   stroke-width="0.5"
   d="M37.7,7.925c0,0,0.266,3.465-0.533,5.996  c-0.398,1.262-1.684,1.71-2.184,2.451"
   id="path2632" />
<path
   fill="none"
   stroke="#000000"
   stroke-width="0.5"
   d="M25.042,15.919c0,0-1.333-1.599-1.333-3.598c0-1.999-2.665,0-2.932,1.999  c-0.267,1.999,2.262,4.196,2.795,4.463"
   id="path2634" />
<path
   fill="none"
   stroke="#000000"
   stroke-width="0.5"
   d="M34.103,15.12c0.092,1.242-0.377-3.432,0.801-5.196  c1.064-1.599-0.533-3.198-1.867-1.732c-1.332,1.466-1.826,3.821-1.692,6.219"
   id="path2636" />
<path
   fill="none"
   stroke="#000000"
   stroke-width="0.5"
   d="M25.375,42.369c0,0,0.333,1,0.6,1.399"
   id="path2638" />
<path
   fill="#3F2F66"
   stroke="#000000"
   stroke-width="0.5"
   d="M40.499,23.381c-0.268-1.599,1.732-3.864,6.529-3.065  c4.797,0.8,2.396,6.263,1.998,6.796s-2.266-2.665-4.396-2.932C42.497,23.914,40.765,24.98,40.499,23.381z"
   id="path2640" />
<path
   d="M27.641,36.74c0.646,1.397,2.332,3.664,6.392,4.416l0.004-0.019c-2.132,0.533-3.464,6.129-6.262,5.729  c-4.833-0.691-1.204-9.432-0.816-10.334l0,0c0.2,0.052,0.408,0.093,0.623,0.119L27.641,36.74z"
   id="path2642" />
<path
   fill="#FF9A7F"
   d="M26.042,43.802c-1.252,3.842-0.676,7.971,0.4,10.659c1.599,3.998,5.732,3.994,6.829,1.566  c0.932-2.066-0.3-4.364-1.632-5.297c-1.333-0.933-0.4-7.062-0.534-8.528s-1.999-1.066-1.999-1.066l-0.029,0.017  c-0.842-1.6-3.168-1.082-3.168-1.082s-0.5,0.882-0.467,2.332C25.442,42.402,25.775,43.401,26.042,43.802L26.042,43.802z"
   id="path2644" />
<path
   fill="none"
   stroke="#000000"
   stroke-width="0.5"
   d="M29.04,41.103c0,0,1.866-0.4,1.999,1.066  c0.133,1.466-0.8,7.595,0.533,8.528s2.564,3.23,1.633,5.297c-1.097,2.43-5.23,2.432-6.83-1.566c-1.246-3.115-1.732-8.261,0.4-12.525  "
   id="path2646" />
<path
   fill="none"
   stroke="#000000"
   stroke-width="0.5"
   d="M25.842,40.037c0,0,3.597-0.8,3.464,2.665  c-0.133,3.464-0.589,7.132-0.533,8.394c0.133,3,1.665,3.334,1.665,3.334"
   id="path2648" />
<path
   fill="none"
   stroke="#000000"
   stroke-width="0.5"
   d="M34.88,44.578c-1.188,0.945-1.916,1.818-1.713,2.114  c0.252,0.362,1.828-0.293,3.523-1.467c1.693-1.173,2.863-2.418,2.611-2.781c-0.184-0.267-1.086,0.017-2.225,0.652"
   id="path2650" />
<path
   fill="#8B4F9F"
   d="M39.327,42.469L40.794,45c0.25,0.363-0.92,1.608-2.613,2.781s-3.271,1.829-3.523,1.466l-1.465-2.53  c0,0-0.008-0.011,0,0c0.252,0.362,1.828-0.293,3.521-1.466C38.409,44.077,39.579,42.832,39.327,42.469  C39.319,42.457,39.327,42.469,39.327,42.469z"
   id="path2652" />
<path
   fill="none"
   stroke="#000000"
   stroke-width="0.5"
   d="M33.167,46.692l1.465,2.531c0.254,0.363,1.83-0.294,3.523-1.466  c1.693-1.172,2.865-2.418,2.613-2.781l-1.467-2.531"
   id="path2654" />
<ellipse
   transform="matrix(0.863 -0.5052 0.5052 0.863 -18.2578 25.3701)"
   fill="#FDEE27"
   cx="37.65"
   cy="46.35"
   rx="0.875"
   ry="1.237"
   id="ellipse2656" />
</svg>